<?xml version="1.0" encoding="UTF-8" standalone="no"?>
<svg
   xmlns:dc="http://purl.org/dc/elements/1.1/"
   xmlns:cc="http://creativecommons.org/ns#"
   xmlns:rdf="http://www.w3.org/1999/02/22-rdf-syntax-ns#"
   xmlns:svg="http://www.w3.org/2000/svg"
   xmlns="http://www.w3.org/2000/svg"
   xmlns:sodipodi="http://sodipodi.sourceforge.net/DTD/sodipodi-0.dtd"
   xmlns:inkscape="http://www.inkscape.org/namespaces/inkscape"
   viewBox="0 0 22 22"
   id="svg2"
   version="1.1"
   inkscape:version="0.91 r13725"
   sodipodi:docname="homepage (6).svg">
  <metadata
     id="metadata10">
    <rdf:RDF>
      <cc:Work
         rdf:about="">
        <dc:format>image/svg+xml</dc:format>
        <dc:type
           rdf:resource="http://purl.org/dc/dcmitype/StillImage" />
        <dc:title />
      </cc:Work>
    </rdf:RDF>
  </metadata>
  <sodipodi:namedview
     pagecolor="#9a9a9a"
     bordercolor="#666666"
     borderopacity="1"
     objecttolerance="10"
     gridtolerance="10"
     guidetolerance="10"
     inkscape:pageopacity="0"
     inkscape:pageshadow="2"
     inkscape:window-width="1920"
     inkscape:window-height="1048"
     id="namedview8"
     showgrid="false"
     inkscape:zoom="17.944849"
     inkscape:cx="25.542686"
     inkscape:cy="6.3656352"
     inkscape:window-x="0"
     inkscape:window-y="0"
     inkscape:window-maximized="1"
     inkscape:current-layer="g4188" />
  <defs
     id="defs3051">
    <inkscape:path-effect
       effect="spiro"
       id="path-effect4167"
       is_visible="true" />
    <inkscape:path-effect
       effect="spiro"
       id="path-effect4152"
       is_visible="true" />
    <inkscape:path-effect
       effect="spiro"
       id="path-effect4186"
       is_visible="true" />
    <style
       type="text/css"
       id="current-color-scheme">
      .ColorScheme-Text {
        color:#4d4d4d;
      }
      </style>
    <inkscape:path-effect
       is_visible="true"
       id="path-effect4144"
       effect="spiro" />
    <inkscape:path-effect
       effect="spiro"
       id="path-effect4140"
       is_visible="true" />
    <inkscape:path-effect
       is_visible="true"
       id="path-effect4144-3"
       effect="spiro" />
    <inkscape:path-effect
       effect="spiro"
       id="path-effect4140-7"
       is_visible="true" />
    <inkscape:path-effect
       effect="spiro"
       id="path-effect4740-3"
       is_visible="true" />
    <inkscape:path-effect
       effect="spiro"
       id="path-effect4744-6"
       is_visible="true" />
    <inkscape:path-effect
       effect="spiro"
       id="path-effect4748-7"
       is_visible="true" />
  </defs>
  <g
     id="g4188"
     transform="translate(26.465567,0.39550039)"
     style="stroke:#ffffff;stroke-opacity:1">
    <g
       style="stroke:#ffffff;stroke-width:1.86888468;stroke-miterlimit:4;stroke-dasharray:none;stroke-opacity:1"
       id="g4162"
       transform="matrix(0.69560204,0,0,0.69560204,2.625656,-6.3269708)">
      <path
         style="opacity:1;fill:currentColor;fill-opacity:1;stroke:none"
         d="m -33.416529,12.12392 c -0.132956,0 -0.307023,-0.0041 -0.516639,0.02527 -0.210025,0.02941 -0.434933,0.09154 -0.659837,0.204971 -0.467905,0.236014 -0.820073,0.647905 -0.957467,1.182092 l -0.03089,0.112313 0,2.350145 -1.943011,0 0,1.8672 3.810211,0 0,-3.855136 c 0.01311,-0.0039 0.01608,-0.0051 0.03931,-0.0084 0.04578,-0.0064 0.133384,-0.01123 0.25832,-0.01123 l 16.220774,0 0.04492,-0.0056 c -0.0035,-0.0017 0.009,0.008 0.01685,0.01966 0.0089,0.01315 0.03056,0.05591 0.04212,0.120736 0.01182,0.06632 0.01685,0.183997 0.01685,0.350978 l 0,11.441864 0,0.01123 c 0,0 0.01561,0.06593 -0.112313,0.227433 -0.805811,1.01741 -3.254263,3.681052 -3.254263,3.681052 l 1.373024,1.266326 c 0,0 2.394369,-2.585067 3.346922,-3.787749 0.523839,-0.661374 0.516639,-1.431987 0.516638,-1.431987 l 0,-11.408171 c 0,-0.1774 8.38e-4,-0.406781 -0.04773,-0.679493 -0.04888,-0.274212 -0.145066,-0.561374 -0.328514,-0.833922 -0.184443,-0.27404 -0.436625,-0.50445 -0.749689,-0.65703 -0.313097,-0.152598 -0.65914,-0.215381 -1.008006,-0.1797 l 0.09547,-0.0028 -16.173041,0 z m -2.454034,7.628846 0,2.08621 -1.594842,0 0,1.8672 3.46485,0 0,-3.95341 -1.870008,0 z m -0.02527,5.694257 0,2.431573 -1.656613,0 0,1.8672 3.523813,0 0,-4.298773 -1.8672,0 z m -0.11512,5.952578 c 0,0 -0.01886,0.296671 -0.0028,0.654222 0.0138,0.307604 0.0662,0.696033 0.190932,1.019239 0.596374,1.545412 2.248276,2.818656 3.608048,2.810627 l 16.554903,-0.09546 0,-1.867202 -16.282545,0.04212 c -1.005794,0.01484 -1.982117,-0.684974 -2.204138,-1.993551 -0.01098,-0.244805 0,-0.449251 0,-0.449251 l -1.864392,-0.120737 z"
         id="path4164"
         inkscape:connector-curvature="0"
         class="ColorScheme-Text" />
    </g>
  </g>
</svg>
