<?xml version="1.0" encoding="UTF-8" standalone="no"?>
<svg
   xmlns:dc="http://purl.org/dc/elements/1.1/"
   xmlns:cc="http://creativecommons.org/ns#"
   xmlns:rdf="http://www.w3.org/1999/02/22-rdf-syntax-ns#"
   xmlns:svg="http://www.w3.org/2000/svg"
   xmlns="http://www.w3.org/2000/svg"
   xmlns:sodipodi="http://sodipodi.sourceforge.net/DTD/sodipodi-0.dtd"
   xmlns:inkscape="http://www.inkscape.org/namespaces/inkscape"
   viewBox="0 0 22 22"
   id="svg2"
   version="1.1"
   inkscape:version="0.91 r13725"
   sodipodi:docname="zzz (1).svg">
  <metadata
     id="metadata10">
    <rdf:RDF>
      <cc:Work
         rdf:about="">
        <dc:format>image/svg+xml</dc:format>
        <dc:type
           rdf:resource="http://purl.org/dc/dcmitype/StillImage" />
      </cc:Work>
    </rdf:RDF>
  </metadata>
  <sodipodi:namedview
     pagecolor="#ffffff"
     bordercolor="#666666"
     borderopacity="1"
     objecttolerance="10"
     gridtolerance="10"
     guidetolerance="10"
     inkscape:pageopacity="0"
     inkscape:pageshadow="2"
     inkscape:window-width="1920"
     inkscape:window-height="1048"
     id="namedview8"
     showgrid="false"
     inkscape:zoom="8.2497745"
     inkscape:cx="-35.192225"
     inkscape:cy="3.8173572"
     inkscape:window-x="0"
     inkscape:window-y="0"
     inkscape:window-maximized="1"
     inkscape:current-layer="g4178" />
  <defs
     id="defs3051">
    <style
       type="text/css"
       id="current-color-scheme">
      .ColorScheme-Text {
        color:#4d4d4d
      }
      </style>
    <inkscape:path-effect
       is_visible="true"
       id="path-effect4186"
       effect="spiro" />
    <style
       id="current-color-scheme-3"
       type="text/css">
      .ColorScheme-Text {
        color:#4d4d4d;
      }
      </style>
    <inkscape:path-effect
       effect="spiro"
       id="path-effect4144"
       is_visible="true" />
    <inkscape:path-effect
       is_visible="true"
       id="path-effect4140"
       effect="spiro" />
    <inkscape:path-effect
       effect="spiro"
       id="path-effect4144-3"
       is_visible="true" />
    <inkscape:path-effect
       is_visible="true"
       id="path-effect4140-7"
       effect="spiro" />
    <inkscape:path-effect
       effect="spiro"
       id="path-effect4186-3"
       is_visible="true" />
    <style
       type="text/css"
       id="current-color-scheme-5">
      .ColorScheme-Text {
        color:#4d4d4d;
      }
      </style>
    <inkscape:path-effect
       is_visible="true"
       id="path-effect4144-6"
       effect="spiro" />
    <inkscape:path-effect
       effect="spiro"
       id="path-effect4140-2"
       is_visible="true" />
    <inkscape:path-effect
       is_visible="true"
       id="path-effect4144-3-9"
       effect="spiro" />
    <inkscape:path-effect
       effect="spiro"
       id="path-effect4140-7-1"
       is_visible="true" />
  </defs>
  <g
     style="stroke:#ffffff;stroke-opacity:1"
     transform="translate(-56.404213,-10.550817)"
     id="g4188">
    <g
       style="opacity:1;stroke:#ffffff;stroke-opacity:1"
       transform="matrix(0.66738602,0,0,0.66738602,23.962554,8.33402)"
       id="g4159">
      <g
         id="g4178"
         transform="translate(42.464699,16.133932)"
         style="stroke:#c064bd;stroke-opacity:1">
        <path
           style="color:#4d4d4d;opacity:1;fill:#8e44ad;fill-opacity:1;stroke:none"
           d="M 10.931641 2.703125 C 8.8468312 2.7031251 6.9596064 3.0088521 5.5351562 3.5332031 C 4.8229302 3.7953786 4.2223209 4.1086484 3.7636719 4.5078125 C 3.3050229 4.9069767 2.9667969 5.4364824 2.9667969 6.046875 C 2.9667969 6.6572676 3.3050229 7.1848202 3.7636719 7.5839844 C 4.2223209 7.9831485 4.8229302 8.2983714 5.5351562 8.5605469 C 6.9596064 9.0848978 8.8468312 9.3886719 10.931641 9.3886719 C 11.04857 9.3886719 11.157786 9.3788496 11.273438 9.3769531 L 11.273438 8.0761719 C 11.157642 8.078293 11.048844 8.0898438 10.931641 8.0898438 C 8.9761412 8.0898438 7.20766 7.790144 5.984375 7.3398438 C 5.372733 7.1146934 4.8989195 6.8506614 4.6171875 6.6054688 C 4.3354545 6.3602758 4.265625 6.1801162 4.265625 6.046875 C 4.265625 5.9136338 4.335454 5.7334741 4.6171875 5.4882812 C 4.8989195 5.2430885 5.372733 4.9771032 5.984375 4.7519531 C 7.20766 4.3016528 8.9761412 4.0019531 10.931641 4.0019531 C 11.048844 4.0019531 11.157642 4.0135039 11.273438 4.015625 L 11.273438 2.7167969 C 11.157768 2.7148882 11.048589 2.703125 10.931641 2.703125 z M 3.0585938 10.195312 C 2.8175916 11.031177 3.2379371 11.882858 3.9394531 12.462891 C 4.6409701 13.042923 5.6419592 13.480467 6.8945312 13.792969 C 8.2458371 14.130103 9.7661163 14.279209 11.273438 14.251953 L 11.273438 12.941406 C 11.143778 12.94385 11.014562 12.951522 10.884766 12.951172 C 9.6005077 12.947711 8.3190611 12.808203 7.2089844 12.53125 C 6.082294 12.250152 5.2382054 11.848449 4.7695312 11.460938 C 4.3008582 11.073424 4.2278276 10.829986 4.3066406 10.556641 L 3.0585938 10.195312 z M 9.9355469 15.517578 L 9.9355469 17.365234 L 4.3066406 17.365234 L 4.3066406 16.652344 L 1.6933594 16.652344 L 1.6933594 19.267578 L 4.3066406 19.267578 L 4.3066406 18.664062 L 16.863281 18.664062 L 16.863281 19.267578 L 19.478516 19.267578 L 19.478516 16.652344 L 16.863281 16.652344 L 16.863281 17.365234 L 11.236328 17.365234 L 11.236328 15.517578 L 9.9355469 15.517578 z "
           transform="matrix(1.4983832,0,0,1.4983832,6.1453378,-12.812321)"
           id="ellipse4194" />
        <path
           style="color:#000000;font-style:normal;font-variant:normal;font-weight:normal;font-stretch:normal;font-size:medium;line-height:normal;font-family:sans-serif;text-indent:0;text-align:start;text-decoration:none;text-decoration-line:none;text-decoration-style:solid;text-decoration-color:#000000;letter-spacing:normal;word-spacing:normal;text-transform:none;direction:ltr;block-progression:tb;writing-mode:lr-tb;baseline-shift:baseline;text-anchor:start;white-space:normal;clip-rule:nonzero;display:inline;overflow:visible;visibility:visible;opacity:1;isolation:auto;mix-blend-mode:normal;color-interpolation:sRGB;color-interpolation-filters:linearRGB;solid-color:#000000;solid-opacity:1;fill:#8e44ad;fill-opacity:1;fill-rule:evenodd;stroke:#8e44ad;stroke-width:0.26;stroke-linecap:round;stroke-linejoin:round;stroke-miterlimit:4;stroke-dasharray:none;stroke-dashoffset:0;stroke-opacity:1;color-rendering:auto;image-rendering:auto;shape-rendering:auto;text-rendering:auto;enable-background:accumulate"
           d="M 13.318359 4.6503906 L 13.318359 5.5566406 L 13.310547 5.5605469 L 13.318359 5.5742188 L 13.318359 5.5898438 L 13.328125 5.5898438 L 15.121094 8.6972656 L 15.935547 8.2265625 L 14.632812 5.96875 C 16.699994 6.1627581 18.296875 7.7778286 18.296875 9.7519531 C 18.296875 11.85571 16.491089 13.576172 14.226562 13.576172 C 14.180119 13.576172 14.137845 13.565889 14.091797 13.564453 L 14.091797 14.365234 C 14.137259 14.366436 14.180811 14.371094 14.226562 14.371094 C 16.896382 14.371094 19.091797 12.309814 19.091797 9.7519531 C 19.091797 7.9030372 17.937039 6.3281412 16.292969 5.5898438 L 18.015625 5.5898438 L 18.015625 4.6503906 L 13.318359 4.6503906 z "
           transform="matrix(1.4983832,0,0,1.4983832,6.1453378,-12.812321)"
           id="path3350" />
      </g>
    </g>
  </g>
</svg>
