<?xml version="1.0" encoding="UTF-8" standalone="no"?>
<svg
   xmlns:dc="http://purl.org/dc/elements/1.1/"
   xmlns:cc="http://creativecommons.org/ns#"
   xmlns:rdf="http://www.w3.org/1999/02/22-rdf-syntax-ns#"
   xmlns:svg="http://www.w3.org/2000/svg"
   xmlns="http://www.w3.org/2000/svg"
   xmlns:sodipodi="http://sodipodi.sourceforge.net/DTD/sodipodi-0.dtd"
   xmlns:inkscape="http://www.inkscape.org/namespaces/inkscape"
   viewBox="0 0 22 22"
   id="svg2"
   version="1.1"
   inkscape:version="0.91 r13725"
   sodipodi:docname="network-workgroup (1).svg">
  <metadata
     id="metadata10">
    <rdf:RDF>
      <cc:Work
         rdf:about="">
        <dc:format>image/svg+xml</dc:format>
        <dc:type
           rdf:resource="http://purl.org/dc/dcmitype/StillImage" />
        <dc:title />
      </cc:Work>
    </rdf:RDF>
  </metadata>
  <sodipodi:namedview
     pagecolor="#9a9a9a"
     bordercolor="#666666"
     borderopacity="1"
     objecttolerance="10"
     gridtolerance="10"
     guidetolerance="10"
     inkscape:pageopacity="0"
     inkscape:pageshadow="2"
     inkscape:window-width="1920"
     inkscape:window-height="1048"
     id="namedview8"
     showgrid="false"
     inkscape:zoom="17.94485"
     inkscape:cx="-6.2867716"
     inkscape:cy="10.876382"
     inkscape:window-x="0"
     inkscape:window-y="0"
     inkscape:window-maximized="1"
     inkscape:current-layer="g4159" />
  <defs
     id="defs3051">
    <inkscape:path-effect
       effect="spiro"
       id="path-effect4186"
       is_visible="true" />
    <style
       type="text/css"
       id="current-color-scheme">
      .ColorScheme-Text {
        color:#4d4d4d;
      }
      </style>
    <inkscape:path-effect
       is_visible="true"
       id="path-effect4144"
       effect="spiro" />
    <inkscape:path-effect
       effect="spiro"
       id="path-effect4140"
       is_visible="true" />
    <inkscape:path-effect
       is_visible="true"
       id="path-effect4144-3"
       effect="spiro" />
    <inkscape:path-effect
       effect="spiro"
       id="path-effect4140-7"
       is_visible="true" />
  </defs>
  <g
     id="g4188"
     transform="translate(26.465567,0.39550039)"
     style="stroke:#ffffff;stroke-opacity:1">
    <g
       id="g4159"
       transform="matrix(0.66738602,0,0,0.66738602,21.557254,5.1770636)"
       style="stroke:#ffffff;stroke-opacity:1;opacity:1">
      <path
         style="opacity:1;fill:#209ae7;fill-opacity:1;stroke:none"
         d="M 10.917969,2.8457031 C 10.068087,2.8948087 9.2154978,3.0750901 8.3925781,3.3945312 6.797473,4.0137192 5.4853335,5.0965508 4.5605469,6.4433594 L 4.3164062,6.484375 C 3.41008,6.6410633 2.683152,6.8981191 2.1308594,7.2910156 1.5785674,7.683913 1.2029103,8.2599984 1.1601562,8.9003906 1.0867157,10.000429 1.844863,11.018783 3.1152344,12.001953 l 0.00195,0.07422 0.089844,-0.0039 c 0.182151,0.137897 0.3401227,0.277462 0.5429716,0.414055 3.3616234,2.263623 8.869115,3.772522 13.03125,3.583984 2.081068,-0.09427 3.570251,-0.550967 4.265625,-1.626953 0.347687,-0.537993 0.400488,-1.233774 0.173828,-1.863281 -0.22666,-0.629506 -0.685319,-1.221604 -1.349609,-1.814453 L 19.677734,10.59375 C 19.562141,8.8487786 18.911353,7.1415981 17.722656,5.7480469 16.004025,3.7332347 13.467613,2.6983856 10.917969,2.8457031 Z m 0.07617,1.296875 c 2.150901,-0.1253562 4.288359,0.7471343 5.740234,2.4492188 1.935833,2.2694459 2.223132,5.5081991 0.71875,8.0839841 l -0.0078,0.01172 c -0.239439,0.02946 -0.459131,0.06965 -0.732421,0.08203 C 12.929528,14.940911 7.4899051,13.440612 4.46875,11.40625 4.4401197,11.386971 4.424415,11.368834 4.3964844,11.349609 4.3086968,8.3816771 6.092982,5.6827967 8.8632812,4.6074219 9.5584724,4.3375626 10.277173,4.1843635 10.994141,4.1425781 Z M 3.7382812,7.9765625 C 3.4383625,8.7014769 3.2253867,9.4660003 3.140625,10.263672 2.6603062,9.7262809 2.4371465,9.2646847 2.4550781,8.9960938 2.4699742,8.7729923 2.5637239,8.5852447 2.8867188,8.3554688 3.0794025,8.2183948 3.3815394,8.0917096 3.7382812,7.9765625 Z M 19.595703,12.359375 c 0.195801,0.24698 0.338294,0.474892 0.404297,0.658203 0.118295,0.328544 0.08996,0.504176 -0.04492,0.712891 -0.121267,0.187643 -0.429897,0.396189 -0.878906,0.580078 0.26118,-0.6324 0.42146,-1.288136 0.519531,-1.951172 z m -14.8632811,1.041016 -1.1875,0.529297 0.265625,0.59375 c 1.0204826,2.290059 3.0213147,3.998828 5.4433593,4.646484 2.4220448,0.647655 5.0078728,0.166493 7.0351558,-1.308594 l 0.525391,-0.382812 -0.765625,-1.052735 -0.52539,0.382813 c -1.710822,1.244822 -3.889634,1.65007 -5.9335942,1.103515 C 7.5458846,17.365554 5.8592304,15.926718 4.9980469,13.994141 l -0.265625,-0.59375 z"
         transform="matrix(1.4983832,0,0,1.4983832,-71.956588,-8.3498363)"
         id="path4153"
         inkscape:connector-curvature="0"
         class="ColorScheme-Text" />
    </g>
  </g>
</svg>
