<?xml version="1.0" encoding="UTF-8" standalone="no"?>
<svg
   xmlns:dc="http://purl.org/dc/elements/1.1/"
   xmlns:cc="http://creativecommons.org/ns#"
   xmlns:rdf="http://www.w3.org/1999/02/22-rdf-syntax-ns#"
   xmlns:svg="http://www.w3.org/2000/svg"
   xmlns="http://www.w3.org/2000/svg"
   xmlns:sodipodi="http://sodipodi.sourceforge.net/DTD/sodipodi-0.dtd"
   xmlns:inkscape="http://www.inkscape.org/namespaces/inkscape"
   viewBox="0 0 16 16"
   version="1.1"
   id="svg5"
   sodipodi:docname="folder-publicshare-symbolic.svg"
   width="16"
   height="16"
   inkscape:version="0.91 r13725">
  <metadata
     id="metadata9">
    <rdf:RDF>
      <cc:Work
         rdf:about="">
        <dc:format>image/svg+xml</dc:format>
        <dc:type
           rdf:resource="http://purl.org/dc/dcmitype/StillImage" />
        <dc:title />
      </cc:Work>
    </rdf:RDF>
  </metadata>
  <sodipodi:namedview
     pagecolor="#ffffff"
     bordercolor="#666666"
     borderopacity="1"
     objecttolerance="10"
     gridtolerance="10"
     guidetolerance="10"
     inkscape:pageopacity="0"
     inkscape:pageshadow="2"
     inkscape:window-width="1920"
     inkscape:window-height="1055"
     id="namedview7"
     showgrid="false"
     inkscape:zoom="32"
     inkscape:cx="-3.7981657"
     inkscape:cy="4.1935062"
     inkscape:window-x="0"
     inkscape:window-y="0"
     inkscape:window-maximized="1"
     inkscape:current-layer="svg5" />
  <defs
     id="defs3051">
    <style
       type="text/css"
       id="current-color-scheme">
      .ColorScheme-Text {
        color:#4d4d4d;
      }
      </style>
    <inkscape:path-effect
       is_visible="true"
       id="path-effect4167"
       effect="spiro" />
    <inkscape:path-effect
       is_visible="true"
       id="path-effect4152"
       effect="spiro" />
    <inkscape:path-effect
       is_visible="true"
       id="path-effect4186"
       effect="spiro" />
    <style
       id="current-color-scheme-6"
       type="text/css">
      .ColorScheme-Text {
        color:#4d4d4d;
      }
      </style>
    <inkscape:path-effect
       effect="spiro"
       id="path-effect4144"
       is_visible="true" />
    <inkscape:path-effect
       is_visible="true"
       id="path-effect4140"
       effect="spiro" />
    <inkscape:path-effect
       effect="spiro"
       id="path-effect4144-3"
       is_visible="true" />
    <inkscape:path-effect
       is_visible="true"
       id="path-effect4140-7"
       effect="spiro" />
  </defs>
  <g
     style="stroke:#ffffff;stroke-opacity:1;stroke-width:0.9995148;stroke-miterlimit:4;stroke-dasharray:none"
     transform="matrix(0.73135485,0,0,0.73135485,19.336878,0.30808468)"
     id="g4188">
    <g
       style="stroke-width:1.39725199;stroke-miterlimit:4;stroke-dasharray:none"
       transform="matrix(0.71534327,0,0,0.71534327,-33.584941,-7.1953973)"
       id="g5730" />
  </g>
  <path
     style="opacity:1;fill:currentColor;fill-opacity:1;stroke:none"
     d="M 8.827184,0.54737718 8.581486,0.57129468 C 8.0163777,0.62489447 7.3023088,0.81866707 6.8724714,1.0344246 6.1569498,1.3935817 5.4723991,2.0081169 5.0047315,2.7129987 4.3333509,3.7249224 3.9289949,5.2312873 4.0697745,6.1940833 c 0.034251,0.2342496 0.035291,0.2948149 0,0.3065789 -0.024179,0.00806 -0.1099258,0.074813 -0.1891659,0.1478537 -0.359653,0.3315164 -0.5303689,1.0673438 -0.38268,1.650308 0.1694839,0.6689946 0.6466298,1.2472127 1.2023983,1.4567934 0.1385159,0.052237 0.1729061,0.084602 0.2565697,0.2565697 0.1638799,0.336851 0.5231411,0.844396 0.839287,1.182829 l 0.3044046,0.323974 -0.041311,0.250046 c -0.053882,0.33789 -0.2657438,0.765585 -0.5131394,1.032803 -0.6501202,0.702208 -1.8705025,1.132098 -3.1418907,1.106727 -0.4421299,-0.0088 -0.5265801,-0.0027 -0.5392311,0.04131 -0.047021,0.163617 -0.1271827,0.703332 -0.1108898,0.745792 0.012225,0.03185 0.084952,0.05542 0.2022118,0.06523 0.3299663,0.02747 1.1867899,-0.0089 1.4894083,-0.06306 C 4.9596787,14.426891 6.0648765,13.73524 6.587637,12.732254 6.672649,12.56915 6.7618479,12.373926 6.7855,12.29739 c 0.023651,-0.07653 0.054033,-0.15052 0.067404,-0.165249 0.013372,-0.01473 0.1613822,0.03702 0.328322,0.115239 0.5100184,0.239003 0.8904577,0.321591 1.4828855,0.321799 0.4466635,1.67e-4 0.5403022,-0.01155 0.8110209,-0.09348 0.5924526,-0.179315 1.0403786,-0.454193 1.4915826,-0.915389 0.429682,-0.439201 0.597753,-0.702034 1.045847,-1.628565 0.05589,-0.1155591 0.108932,-0.158409 0.310928,-0.2543951 0.518948,-0.2466004 0.925341,-0.8285101 1.058894,-1.5155002 0.05041,-0.2593448 0.05428,-0.3519255 0.02174,-0.5740201 C 13.33448,7.1124623 13.112007,6.6854924 12.854019,6.5332759 12.749963,6.4718652 12.737946,6.4506228 12.760524,6.370202 12.774813,6.3194182 12.784604,6.0753643 12.782262,5.8266223 12.771475,4.6602929 12.315396,3.5187221 11.549434,2.7434393 11.40087,2.5930674 11.264133,2.469475 11.24503,2.469475 c -0.0368,0 -0.49357,0.6035531 -0.49357,0.6522957 -10e-7,0.015742 0.08091,0.1072607 0.178294,0.2022117 0.534241,0.5208871 0.91367,1.3702001 1.004536,2.2482457 0.04789,0.4627976 0.0051,0.7800882 -0.134809,0.9980123 -0.156209,0.2434301 -0.151961,0.4359415 0.01522,0.5979377 0.118079,0.1144154 0.133751,0.1185862 0.358762,0.1130645 0.224783,-0.00552 0.240068,-6.964e-4 0.295708,0.093496 0.160806,0.2722202 0.124275,0.719352 -0.08915,1.1197742 -0.121832,0.2285786 -0.33328,0.4140701 -0.550103,0.4826989 -0.352835,0.1116787 -0.41001,0.1481705 -0.452258,0.2891843 -0.06779,0.22625 -0.468728,1.030778 -0.65447,1.311115 -0.220664,0.333046 -0.571019,0.685875 -0.8414614,0.850159 -0.6226551,0.378247 -1.407413,0.421703 -2.1851863,0.121762 C 7.2734049,11.386253 7.0198322,11.201926 6.5050115,10.684052 6.0004844,10.176531 5.6374027,9.6834054 5.4961276,9.3142307 5.4264558,9.1321668 5.4065995,9.1113666 5.2591268,9.0576612 4.7567656,8.8747137 4.6156245,8.7683608 4.4568032,8.4532005 4.2653885,8.0733634 4.2325524,7.6443918 4.3763534,7.3986558 4.4391163,7.2914018 4.4502755,7.28812 4.6655377,7.287766 4.9171943,7.2873492 5.0504607,7.2211379 5.1351906,7.0572882 5.2283675,6.8771033 5.2059344,6.7825873 5.0047315,6.5006626 4.7998544,6.2135892 4.8699179,5.1831275 5.1504109,4.3459122 5.6429703,2.8757209 6.608947,1.8827293 7.8748323,1.5475639 8.1255679,1.4811773 8.6712774,1.392933 8.8467529,1.3910129 c 0.032157,-3.518e-4 0.034944,-0.333477 0.00435,-0.62620387 L 8.827184,0.54737718 Z m 2.750513,12.41536082 -0.27179,0.293533 c -0.14959,0.161121 -0.273132,0.304192 -0.273964,0.317451 -0.0026,0.04088 0.484094,0.407595 0.739269,0.556625 0.530504,0.309831 1.230922,0.540487 1.924272,0.634901 0.189252,0.02577 0.550972,0.04801 0.804498,0.05001 l 0.460956,0.0043 0,-0.234827 c -1.68e-4,-0.129153 -0.01001,-0.315311 -0.02174,-0.413121 l -0.02174,-0.178294 -0.54358,-0.01957 c -1.097845,-0.03913 -1.793795,-0.257825 -2.496118,-0.784929 l -0.300056,-0.226128 z"
     id="path4160"
     inkscape:connector-curvature="0"
     class="ColorScheme-Text" />
</svg>
