<?xml version="1.0" encoding="UTF-8" standalone="no"?>
<svg
   xmlns:dc="http://purl.org/dc/elements/1.1/"
   xmlns:cc="http://creativecommons.org/ns#"
   xmlns:rdf="http://www.w3.org/1999/02/22-rdf-syntax-ns#"
   xmlns:svg="http://www.w3.org/2000/svg"
   xmlns="http://www.w3.org/2000/svg"
   xmlns:sodipodi="http://sodipodi.sourceforge.net/DTD/sodipodi-0.dtd"
   xmlns:inkscape="http://www.inkscape.org/namespaces/inkscape"
   viewBox="0 0 22 22"
   id="svg2"
   version="1.1"
   inkscape:version="0.91 r13725"
   sodipodi:docname="user-desktop.svg">
  <metadata
     id="metadata10">
    <rdf:RDF>
      <cc:Work
         rdf:about="">
        <dc:format>image/svg+xml</dc:format>
        <dc:type
           rdf:resource="http://purl.org/dc/dcmitype/StillImage" />
        <dc:title />
      </cc:Work>
    </rdf:RDF>
  </metadata>
  <sodipodi:namedview
     pagecolor="#9a9a9a"
     bordercolor="#666666"
     borderopacity="1"
     objecttolerance="10"
     gridtolerance="10"
     guidetolerance="10"
     inkscape:pageopacity="0"
     inkscape:pageshadow="2"
     inkscape:window-width="1920"
     inkscape:window-height="1048"
     id="namedview8"
     showgrid="false"
     inkscape:zoom="40.925447"
     inkscape:cx="13.432854"
     inkscape:cy="9.2227846"
     inkscape:window-x="0"
     inkscape:window-y="0"
     inkscape:window-maximized="1"
     inkscape:current-layer="g4188" />
  <defs
     id="defs3051">
    <inkscape:path-effect
       effect="spiro"
       id="path-effect4153"
       is_visible="true" />
    <inkscape:path-effect
       effect="spiro"
       id="path-effect4149"
       is_visible="true" />
    <inkscape:path-effect
       effect="spiro"
       id="path-effect4145"
       is_visible="true" />
    <inkscape:path-effect
       effect="spiro"
       id="path-effect4186"
       is_visible="true" />
    <style
       type="text/css"
       id="current-color-scheme">
      .ColorScheme-Text {
        color:#4d4d4d;
      }
      </style>
    <inkscape:path-effect
       is_visible="true"
       id="path-effect4144"
       effect="spiro" />
    <inkscape:path-effect
       effect="spiro"
       id="path-effect4140"
       is_visible="true" />
    <inkscape:path-effect
       is_visible="true"
       id="path-effect4144-3"
       effect="spiro" />
    <inkscape:path-effect
       effect="spiro"
       id="path-effect4140-7"
       is_visible="true" />
  </defs>
  <g
     id="g4188"
     transform="translate(26.465567,0.39550039)"
     style="stroke:#ffffff;stroke-opacity:1">
    <path
       style="opacity:1;fill:currentColor;fill-opacity:1;stroke:none"
       d="m 11.179688,2.2734375 -8.1367192,6.234375 0,10.3632815 1,0 0,-9.8691409 7.7441402,-5.9335937 -0.607421,-0.7949219 z m 2.666015,2.2441406 -0.638672,0.8203125 4.683594,3.6464844 0,7.216797 c -0.0036,0.447433 -0.167899,0.914476 -0.460937,1.246094 -0.29304,0.331619 -0.69687,0.549657 -1.302735,0.535156 l -0.0059,0 -9.4726565,0 0,1.039062 9.4667965,0 -0.01172,-0.002 c 0.887718,0.02125 1.626781,-0.341104 2.105468,-0.882812 0.478688,-0.541709 0.715202,-1.241308 0.720704,-1.927735 l 0,-0.002 0,-7.7304685 -5.083985,-3.9589844 z m -5.8671874,3.6035157 0,4.2402342 -0.00586,0 c -7.888e-4,0.02726 0.00598,0.05295 0.00586,0.08008 l 0,0.371094 0.027344,0 c 0.1746475,1.613174 1.503041,2.904629 3.1679684,2.964844 1.818466,0.06577 3.360559,-1.357838 3.439453,-3.175782 0.07889,-1.817944 -1.333063,-3.3708762 -3.15039,-3.4628901 l -0.05078,1.0000001 c 1.280127,0.06482 2.256744,1.139361 2.201172,2.419922 -0.05557,1.280562 -1.121415,2.265078 -2.402343,2.21875 -1.2529088,-0.04532 -2.2248965,-1.061359 -2.2324222,-2.304688 l 0,-4.3515622 -1,0 z"
       transform="translate(-26.465567,-0.39550039)"
       id="path4142-6"
       inkscape:connector-curvature="0"
       class="ColorScheme-Text" />
  </g>
</svg>
