<?xml version="1.0" encoding="UTF-8" standalone="no"?>
<svg
   xmlns:dc="http://purl.org/dc/elements/1.1/"
   xmlns:cc="http://creativecommons.org/ns#"
   xmlns:rdf="http://www.w3.org/1999/02/22-rdf-syntax-ns#"
   xmlns:svg="http://www.w3.org/2000/svg"
   xmlns="http://www.w3.org/2000/svg"
   xmlns:sodipodi="http://sodipodi.sourceforge.net/DTD/sodipodi-0.dtd"
   xmlns:inkscape="http://www.inkscape.org/namespaces/inkscape"
   viewBox="0 0 22 22"
   id="svg2"
   version="1.1"
   inkscape:version="0.91 r13725"
   sodipodi:docname="deepin-toggle-desktop.svg">
  <metadata
     id="metadata10">
    <rdf:RDF>
      <cc:Work
         rdf:about="">
        <dc:format>image/svg+xml</dc:format>
        <dc:type
           rdf:resource="http://purl.org/dc/dcmitype/StillImage" />
      </cc:Work>
    </rdf:RDF>
  </metadata>
  <sodipodi:namedview
     pagecolor="#ffffff"
     bordercolor="#666666"
     borderopacity="1"
     objecttolerance="10"
     gridtolerance="10"
     guidetolerance="10"
     inkscape:pageopacity="0"
     inkscape:pageshadow="2"
     inkscape:window-width="1920"
     inkscape:window-height="1050"
     id="namedview8"
     showgrid="false"
     inkscape:zoom="15.170655"
     inkscape:cx="-6.7668333"
     inkscape:cy="11.865954"
     inkscape:window-x="0"
     inkscape:window-y="0"
     inkscape:window-maximized="1"
     inkscape:current-layer="svg2" />
  <defs
     id="defs3051">
    <style
       type="text/css"
       id="current-color-scheme">
      .ColorScheme-Text {
        color:#4d4d4d;
      }
      </style>
  </defs>
  <path
     style="opacity:1;fill:#ffffff;fill-opacity:1;stroke:none;stroke-width:0.02791526;stroke-linecap:round;stroke-linejoin:miter;stroke-miterlimit:4;stroke-dasharray:none;stroke-opacity:1"
     d="m 11.515906,3.7468506 c -0.02989,0.010499 -1.35282,1.0102789 -4.9022511,3.7028756 L 4.7386215,8.8712527 4.7190552,12.453269 c -0.010964,1.97018 -0.029416,3.936689 -0.040287,4.369323 l -0.019566,0.786156 0.2566808,0 0.2555295,0 0.018415,-0.756229 c 0.010079,-0.416151 0.029571,-2.318634 0.043745,-4.227747 l 0.026474,-3.4715165 0.071363,-0.067907 C 5.3708334,9.0475981 6.3138086,8.3241019 7.4262918,7.4785042 9.6620617,5.7790917 11.095346,4.6825535 11.536632,4.3338784 L 11.825541,4.1059741 11.686265,3.920657 C 11.609414,3.8191321 11.532396,3.7410763 11.515913,3.7468506 Z m 2.299765,1.9659656 c -0.02651,1.347e-4 -0.31891,0.3581453 -0.302721,0.3706328 0.0062,0.0048 0.36967,0.2905862 0.808025,0.6353703 0.438354,0.3447832 1.318093,1.0318338 1.954455,1.5262706 l 1.156788,0.8989585 0,3.2056286 c 3.06e-4,1.763492 -0.01209,3.369596 -0.02763,3.569354 -0.01817,0.233537 -0.05078,0.423302 -0.09093,0.530627 -0.08579,0.229299 -0.312445,0.453281 -0.620407,0.6135 l -0.241717,0.126613 -3.069806,0 c -1.688229,0 -3.6375743,0.0086 -4.3324899,0.01957 l -1.2638342,0.01957 0,0.234809 0,0.234812 4.3589631,0 4.360116,0 0.227902,-0.08978 c 0.533834,-0.212063 0.929923,-0.594387 1.091181,-1.053196 0.128941,-0.366865 0.134158,-0.550676 0.13467,-4.189763 l 0.0012,-3.4600061 -1.300668,-1.0106076 C 14.722378,6.389929 13.840314,5.7126903 13.81568,5.7128155 Z M 8.7211972,8.7688096 8.7004755,9.5112263 c -0.011424,0.407911 -0.021724,1.2735197 -0.023022,1.9245287 -0.00262,1.339464 0.010692,1.462499 0.2094875,1.913019 0.1596114,0.361696 0.3302759,0.602654 0.6641461,0.93579 0.436274,0.435314 0.8441339,0.671148 1.4261289,0.826442 0.247042,0.06592 0.312617,0.07047 0.77925,0.0587 0.570152,-0.01439 0.714375,-0.04308 1.138373,-0.229055 0.317922,-0.139443 0.657776,-0.35328 0.872482,-0.547892 0.341524,-0.309558 0.687166,-0.849413 0.852916,-1.331746 l 0.101288,-0.291213 0,-0.599687 c 2.44e-4,-0.694765 -0.02919,-0.853807 -0.235961,-1.290308 C 14.324494,10.539781 14.160283,10.29598 13.920408,10.039552 13.419924,9.5045332 12.849895,9.2156784 12.032712,9.084194 l -0.113951,-0.01841 0.0092,0.5006998 0.0081,0.4995502 0.239415,0.05756 c 0.350717,0.08271 0.639324,0.236588 0.90241,0.482282 0.475994,0.444525 0.680352,0.899401 0.681412,1.519364 0.0014,0.82959 -0.438164,1.517469 -1.209736,1.896904 l -0.254378,0.125463 -0.515662,0.01033 c -0.415043,0.0079 -0.549899,2.4e-5 -0.689469,-0.04028 -0.500465,-0.144526 -1.000138,-0.563743 -1.2327783,-1.033615 -0.104335,-0.210728 -0.130818,-0.301748 -0.154238,-0.524871 -0.01557,-0.148332 -0.02849,-1.060999 -0.02878,-2.029271 l -0.0012,-1.7610824 -0.4753769,0 -0.4765279,0 z"
     id="path4513"
     inkscape:connector-curvature="0" />
</svg>
