<?xml version="1.0" encoding="UTF-8" standalone="no"?>
<svg
   xmlns:dc="http://purl.org/dc/elements/1.1/"
   xmlns:cc="http://creativecommons.org/ns#"
   xmlns:rdf="http://www.w3.org/1999/02/22-rdf-syntax-ns#"
   xmlns:svg="http://www.w3.org/2000/svg"
   xmlns="http://www.w3.org/2000/svg"
   xmlns:sodipodi="http://sodipodi.sourceforge.net/DTD/sodipodi-0.dtd"
   xmlns:inkscape="http://www.inkscape.org/namespaces/inkscape"
   viewBox="0 0 22 22"
   id="svg2"
   version="1.1"
   inkscape:version="0.91 r13725"
   sodipodi:docname="homepage (5).svg">
  <metadata
     id="metadata10">
    <rdf:RDF>
      <cc:Work
         rdf:about="">
        <dc:format>image/svg+xml</dc:format>
        <dc:type
           rdf:resource="http://purl.org/dc/dcmitype/StillImage" />
        <dc:title />
      </cc:Work>
    </rdf:RDF>
  </metadata>
  <sodipodi:namedview
     pagecolor="#9a9a9a"
     bordercolor="#666666"
     borderopacity="1"
     objecttolerance="10"
     gridtolerance="10"
     guidetolerance="10"
     inkscape:pageopacity="0"
     inkscape:pageshadow="2"
     inkscape:window-width="1920"
     inkscape:window-height="1048"
     id="namedview8"
     showgrid="false"
     inkscape:zoom="17.944849"
     inkscape:cx="23.07074"
     inkscape:cy="3.9223865"
     inkscape:window-x="0"
     inkscape:window-y="0"
     inkscape:window-maximized="1"
     inkscape:current-layer="g5730" />
  <defs
     id="defs3051">
    <inkscape:path-effect
       effect="spiro"
       id="path-effect4167"
       is_visible="true" />
    <inkscape:path-effect
       effect="spiro"
       id="path-effect4152"
       is_visible="true" />
    <inkscape:path-effect
       effect="spiro"
       id="path-effect4186"
       is_visible="true" />
    <style
       type="text/css"
       id="current-color-scheme">
      .ColorScheme-Text {
        color:#d3dae3;
      }
      </style>
    <inkscape:path-effect
       is_visible="true"
       id="path-effect4144"
       effect="spiro" />
    <inkscape:path-effect
       effect="spiro"
       id="path-effect4140"
       is_visible="true" />
    <inkscape:path-effect
       is_visible="true"
       id="path-effect4144-3"
       effect="spiro" />
    <inkscape:path-effect
       effect="spiro"
       id="path-effect4140-7"
       is_visible="true" />
  </defs>
  <g
     id="g4188"
     transform="translate(26.465567,0.39550039)"
     style="stroke:#ffffff;stroke-opacity:1">
    <g
       id="g5730"
       transform="matrix(0.71534327,0,0,0.71534327,-33.584941,-7.1953973)"
       style="stroke-width:1.81730933;stroke-miterlimit:4;stroke-dasharray:none">
      <path
         style="opacity:1;fill:currentColor;fill-opacity:1;stroke:none"
         d="M 11.828125,1.7539062 C 8.8707636,1.7914975 7.0778846,3.677657 6.2675781,5.5625 5.8624249,6.5049218 5.6747314,7.4506146 5.6542969,8.2441406 5.6462135,8.5579674 5.68736,8.829335 5.7363281,9.0957031 5.6942016,9.1200391 5.6743763,9.095282 5.6289062,9.1328125 5.393514,9.3271791 5.1921424,9.603841 5.0507812,9.9960938 4.9094201,10.388346 4.8530909,10.894037 4.9960938,11.443359 c 0.2098108,0.805952 0.6441655,1.329943 1.0605468,1.613282 0.2081907,0.141669 0.4065054,0.227755 0.5585938,0.28125 0.052828,0.01858 0.027063,0.0047 0.070312,0.01953 0.2486662,0.509853 0.5531883,1.009472 0.9023437,1.404297 0.2123079,0.240077 0.4077302,0.443313 0.5839844,0.611328 -0.071262,1.097684 -0.7663297,1.797804 -1.7871094,2.273437 -1.0757933,0.501268 -2.4750171,0.63567 -3.3671875,0.472657 l -0.234375,1.279297 c 1.2203506,0.222978 2.7879164,0.06063 4.1503907,-0.574219 1.0736828,-0.500284 2.028346,-1.374386 2.390625,-2.582031 0.5127533,0.273442 1.1725267,0.505774 1.9179687,0.552734 1.495755,0.09423 3.307835,-0.703568 4.380859,-3.16211 0.05831,-0.133578 0.09107,-0.198388 0.09766,-0.210937 0.0033,-0.0063 1.37e-4,9.91e-4 -0.01953,0.0293 -0.01967,0.02827 -0.08337,0.09662 -0.07422,0.08789 0.0091,-0.0087 0.108237,-0.129667 0.136719,-0.185546 0.01046,-0.02054 0.01,-0.02407 0.01563,-0.03711 0.147227,-0.054 0.326494,-0.128407 0.519531,-0.259765 0.416381,-0.283339 0.850736,-0.80733 1.060547,-1.613282 0.143004,-0.549322 0.08863,-1.055013 -0.05273,-1.4472652 -0.141362,-0.3922528 -0.344685,-0.6689147 -0.580079,-0.8632813 -0.04594,-0.03792 -0.06869,-0.012645 -0.111328,-0.037109 0.0087,-0.061806 0.03001,-0.1165813 0.03711,-0.1796875 0.05334,-0.4734828 0.02492,-1.0175245 -0.0918,-1.59375 C 16.3271,6.1698133 15.738614,4.87142 14.585938,4.0253906 l -0.767579,1.046875 c 0.799135,0.5865407 1.281564,1.5933749 1.466797,2.5078125 0.09262,0.4572195 0.11021,0.887315 0.07617,1.1894531 -0.03404,0.3021382 -0.182876,0.4371663 -0.05859,0.3457032 -0.02254,0.016589 -0.05027,0.035633 -0.09961,0.089844 -0.02467,0.027104 -0.09152,0.1284063 -0.0918,0.1289063 -1.37e-4,2.503e-4 -0.05071,0.1208698 -0.05078,0.1210937 -6.8e-5,2.239e-4 -0.02734,0.189255 -0.02734,0.1894531 -10e-7,1.989e-4 0.04095,0.2342019 0.04102,0.234375 6.6e-5,1.739e-4 0.120963,0.1990695 0.121093,0.1992185 1.32e-4,1.49e-4 0.136523,0.117062 0.136719,0.117187 1.96e-4,1.26e-4 0.113022,0.05849 0.113281,0.05859 5.2e-4,2.04e-4 0.111793,0.03199 0.146485,0.03711 0.03469,0.0051 0.05972,0.0072 0.08008,0.0078 0.162836,0.0044 0.152359,-0.01166 0.183594,-0.01758 0.04458,-0.0084 0.0815,-0.01429 0.11914,-0.02148 0.04047,0.0539 0.0714,0.07778 0.107422,0.177734 0.06127,0.170019 0.09367,0.385435 0.01758,0.677734 -0.140796,0.540846 -0.350181,0.743974 -0.53125,0.867188 -0.09053,0.06161 -0.178319,0.100259 -0.259765,0.128906 -0.08145,0.02865 -0.09937,0.01135 -0.294922,0.09766 l -0.259766,0.113282 -0.09375,0.269531 c -0.03585,0.104134 -0.04836,0.142954 -0.05859,0.171875 -0.0098,0.01685 -0.0226,0.03822 -0.03125,0.05469 -0.03566,0.06792 -0.07443,0.14775 -0.138671,0.294922 -0.915721,2.098123 -2.066827,2.450442 -3.109375,2.384766 C 10.800991,15.4652 10.300304,15.290919 9.9316406,15.09375 9.7473081,14.995165 9.5969955,14.890516 9.5,14.808594 9.4030045,14.726672 9.3655508,14.637021 9.4082031,14.736328 l -0.066406,0.02734 0.042969,-0.05664 C 9.3247984,14.663002 8.9221515,14.307341 8.5605469,13.898438 8.1835231,13.472099 7.8148428,12.938972 7.6953125,12.591797 L 7.6015625,12.322266 7.3417969,12.208984 C 7.1462485,12.122682 7.1283211,12.139977 7.046875,12.111328 6.9654296,12.082679 6.8776439,12.044033 6.7871094,11.982422 6.6060395,11.859208 6.3947037,11.65608 6.2539062,11.115234 6.177813,10.822935 6.2102152,10.607519 6.2714844,10.4375 c 0.036611,-0.101597 0.070684,-0.12788 0.1113281,-0.181641 0.037498,0.0069 0.074699,0.01352 0.1152344,0.02149 0.027941,0.0055 0.017137,0.01653 0.15625,0.01953 0.01739,3.76e-4 0.039166,6.22e-4 0.070312,-0.002 0.031139,-0.0026 0.1362387,-0.02525 0.1367187,-0.02539 2.397e-4,-7.3e-5 0.1209178,-0.05069 0.1210938,-0.05078 1.752e-4,-9.5e-5 0.1659062,-0.128788 0.1660156,-0.128906 1.102e-4,-1.18e-4 0.1444869,-0.2518125 0.1445313,-0.2519534 4.36e-5,-1.409e-4 0.023459,-0.2849917 0.023437,-0.2851562 -2.43e-5,-1.646e-4 -0.058501,-0.1931705 -0.058594,-0.1933594 -9.16e-5,-1.889e-4 -0.066242,-0.107208 -0.066406,-0.1074219 -3.226e-4,-4.27e-4 -0.068823,-0.079545 -0.091797,-0.099609 -0.045947,-0.040131 -0.070594,-0.052435 -0.089844,-0.064453 0.1162125,0.072527 0.046133,0.058347 0.00586,-0.095703 C 6.9753583,8.8381383 6.9472308,8.582105 6.9550781,8.2773438 6.9707728,7.6678212 7.1248699,6.8559416 7.4609375,6.0742188 8.133074,4.5107731 9.4148258,3.0855882 11.845703,3.0546875 Z m 3.226563,15.1816408 -0.894532,0.943359 c 1.079219,1.02769 2.660041,1.779543 5.191406,1.66211 l -0.05859,-1.298828 c -2.269591,0.105289 -3.364392,-0.474477 -4.238284,-1.306641 z"
         transform="matrix(1.3979303,0,0,1.3979303,9.9523883,9.5057816)"
         id="path5685-7"
         inkscape:connector-curvature="0"
         sodipodi:nodetypes="cssccsssccscsccscsccccccssscccsccssccccccccccccccsccccccccssscccscccscssccccccccccccccssccccccc"
         class="ColorScheme-Text" />
    </g>
  </g>
</svg>
