<?xml version="1.0" encoding="UTF-8" standalone="no"?>
<svg
   xmlns:dc="http://purl.org/dc/elements/1.1/"
   xmlns:cc="http://creativecommons.org/ns#"
   xmlns:rdf="http://www.w3.org/1999/02/22-rdf-syntax-ns#"
   xmlns:svg="http://www.w3.org/2000/svg"
   xmlns="http://www.w3.org/2000/svg"
   xmlns:sodipodi="http://sodipodi.sourceforge.net/DTD/sodipodi-0.dtd"
   xmlns:inkscape="http://www.inkscape.org/namespaces/inkscape"
   viewBox="0 0 22 22"
   id="svg2"
   version="1.1"
   inkscape:version="0.91 r13725"
   sodipodi:docname="homepage (3).svg">
  <metadata
     id="metadata10">
    <rdf:RDF>
      <cc:Work
         rdf:about="">
        <dc:format>image/svg+xml</dc:format>
        <dc:type
           rdf:resource="http://purl.org/dc/dcmitype/StillImage" />
        <dc:title />
      </cc:Work>
    </rdf:RDF>
  </metadata>
  <sodipodi:namedview
     pagecolor="#9a9a9a"
     bordercolor="#666666"
     borderopacity="1"
     objecttolerance="10"
     gridtolerance="10"
     guidetolerance="10"
     inkscape:pageopacity="0"
     inkscape:pageshadow="2"
     inkscape:window-width="1920"
     inkscape:window-height="1048"
     id="namedview8"
     showgrid="false"
     inkscape:zoom="20.462723"
     inkscape:cx="10.711932"
     inkscape:cy="10.748663"
     inkscape:window-x="0"
     inkscape:window-y="0"
     inkscape:window-maximized="1"
     inkscape:current-layer="g4188" />
  <defs
     id="defs3051">
    <inkscape:path-effect
       effect="spiro"
       id="path-effect4167"
       is_visible="true" />
    <inkscape:path-effect
       effect="spiro"
       id="path-effect4152"
       is_visible="true" />
    <inkscape:path-effect
       effect="spiro"
       id="path-effect4186"
       is_visible="true" />
    <style
       type="text/css"
       id="current-color-scheme">
      .ColorScheme-Text {
        color:#d3dae3;
      }
      </style>
    <inkscape:path-effect
       is_visible="true"
       id="path-effect4144"
       effect="spiro" />
    <inkscape:path-effect
       effect="spiro"
       id="path-effect4140"
       is_visible="true" />
    <inkscape:path-effect
       is_visible="true"
       id="path-effect4144-3"
       effect="spiro" />
    <inkscape:path-effect
       effect="spiro"
       id="path-effect4140-7"
       is_visible="true" />
  </defs>
  <g
     id="g4188"
     transform="translate(26.465567,0.39550039)"
     style="stroke:#ffffff;stroke-opacity:1">
    <path
       style="opacity:1;fill:currentColor;fill-opacity:1;stroke:none"
       d="M 11.064453,2.1757812 2.9550781,8.25 l 0,10.871094 1.3007813,0 0,-10.2207034 L 11.84375,3.2148438 11.064453,2.1757812 Z m 2.873047,2.2246094 -0.822266,1.0566406 4.625,3.5996094 0,7.1425784 c -0.0033,0.412929 -0.155638,0.847149 -0.421875,1.148437 -0.266236,0.301288 -0.622327,0.497903 -1.1875,0.484375 l -0.0078,0 -9.4746095,0 0,1.337891 9.4511715,0 c 0.92841,0.02222 1.715214,-0.363508 2.220703,-0.935547 0.50549,-0.572039 0.753988,-1.302506 0.759766,-2.023437 l 0,-0.002 0,-7.8066402 -5.14259,-4.0019072 z m -6.1953125,3.8105469 0,3.9531245 c -0.0034,0.087 -0.0027,0.173403 0,0.259766 l 0,0.392578 0.027344,0 c 0.1546101,1.114506 0.8107496,2.122826 1.8203126,2.701172 1.3352269,0.764908 3.0105149,0.620594 4.1953119,-0.361328 1.184798,-0.981922 1.636557,-2.600671 1.132813,-4.054688 C 14.414225,9.6475485 13.057852,8.6537299 11.519531,8.6152344 l -0.0332,1.3007812 c 1.000778,0.025044 1.87736,0.6634464 2.205078,1.6093754 0.327719,0.94593 0.03446,1.990102 -0.736328,2.628906 -0.770787,0.638803 -1.850099,0.731996 -2.71875,0.234375 C 9.5261481,13.981833 9.0922627,13.253217 9.0429688,12.460938 l 0,-0.304688 c 0.005,-0.07702 0.0069,-0.155071 0.019531,-0.232422 l -0.019531,-0.0039 0,-3.7089845 -1.3007813,0 z"
       id="path4142-6"
       transform="translate(-26.465567,-0.39550039)"
       inkscape:connector-curvature="0"
       class="ColorScheme-Text" />
  </g>
</svg>
