<?xml version="1.0" encoding="UTF-8" standalone="no"?>
<svg
   xmlns:dc="http://purl.org/dc/elements/1.1/"
   xmlns:cc="http://creativecommons.org/ns#"
   xmlns:rdf="http://www.w3.org/1999/02/22-rdf-syntax-ns#"
   xmlns:svg="http://www.w3.org/2000/svg"
   xmlns="http://www.w3.org/2000/svg"
   xmlns:sodipodi="http://sodipodi.sourceforge.net/DTD/sodipodi-0.dtd"
   xmlns:inkscape="http://www.inkscape.org/namespaces/inkscape"
   viewBox="0 0 16 16"
   version="1.1"
   id="svg8"
   sodipodi:docname="folder-remote-symbolic.svg"
   width="16"
   height="16"
   inkscape:version="0.91 r13725">
  <metadata
     id="metadata12">
    <rdf:RDF>
      <cc:Work
         rdf:about="">
        <dc:format>image/svg+xml</dc:format>
        <dc:type
           rdf:resource="http://purl.org/dc/dcmitype/StillImage" />
        <dc:title />
      </cc:Work>
    </rdf:RDF>
  </metadata>
  <sodipodi:namedview
     pagecolor="#ffffff"
     bordercolor="#666666"
     borderopacity="1"
     objecttolerance="10"
     gridtolerance="10"
     guidetolerance="10"
     inkscape:pageopacity="0"
     inkscape:pageshadow="2"
     inkscape:window-width="1920"
     inkscape:window-height="1055"
     id="namedview10"
     showgrid="false"
     inkscape:zoom="30.34131"
     inkscape:cx="0.57772843"
     inkscape:cy="5.1241509"
     inkscape:window-x="0"
     inkscape:window-y="0"
     inkscape:window-maximized="1"
     inkscape:current-layer="svg8" />
  <defs
     id="defs3051">
    <style
       type="text/css"
       id="current-color-scheme">
      .ColorScheme-Text {
        color:#4d4d4d;
      }
      </style>
    <inkscape:path-effect
       is_visible="true"
       id="path-effect4186"
       effect="spiro" />
    <style
       id="current-color-scheme-6"
       type="text/css">
      .ColorScheme-Text {
        color:#4d4d4d;
      }
      </style>
    <inkscape:path-effect
       effect="spiro"
       id="path-effect4144"
       is_visible="true" />
    <inkscape:path-effect
       is_visible="true"
       id="path-effect4140"
       effect="spiro" />
    <inkscape:path-effect
       effect="spiro"
       id="path-effect4144-3"
       is_visible="true" />
    <inkscape:path-effect
       is_visible="true"
       id="path-effect4140-7"
       effect="spiro" />
  </defs>
  <g
     style="stroke:#ffffff;stroke-opacity:1"
     transform="matrix(0.76908004,0,0,0.76908004,19.851785,-0.33997021)"
     id="g4188">
    <g
       style="opacity:1;stroke:#ffffff;stroke-opacity:1"
       transform="matrix(0.66738602,0,0,0.66738602,21.557254,5.1770636)"
       id="g4159" />
  </g>
  <path
     style="opacity:1;fill:currentColor;fill-opacity:1;stroke:none"
     d="M 8.053087,1.4573388 C 7.7210642,1.4597465 7.3861868,1.4781718 7.1574503,1.5133161 5.4646997,1.773399 3.9385722,2.6791442 2.9531554,4.006305 L 2.7532365,4.2761955 2.3813872,4.3501656 C 1.5035397,4.5264253 0.93605959,4.7910708 0.5421332,5.2098169 -0.05843133,5.8482207 -0.04136757,6.682516 0.58811455,7.524878 0.88257779,7.9189236 1.5929237,8.5491141 2.2054586,8.9602959 4.4425753,10.462024 8.2394623,11.612647 11.281778,11.71118 c 0.483408,0.01567 0.633218,0.01444 1.061569,-0.008 1.651114,-0.0865 2.625101,-0.42507 3.162717,-1.097554 0.248281,-0.310569 0.34634,-0.6249825 0.325868,-1.0475745 C 15.803902,8.9794799 15.511224,8.4624129 14.85033,7.8207581 L 14.528461,7.5088845 14.502471,7.2609851 C 14.339395,5.7356713 13.710983,4.4008026 12.65722,3.3425743 11.658861,2.3399845 10.394785,1.716724 8.9307311,1.5013209 8.7138268,1.4694081 8.3851099,1.454931 8.053087,1.4573388 Z m 0.029988,0.8596513 c 0.2878399,-2.33e-5 0.5752931,0.01391 0.7656894,0.041983 0.611947,0.090231 1.1500093,0.2580978 1.7053076,0.5297852 1.661018,0.8126736 2.811194,2.3967076 3.074754,4.2342827 0.167476,1.1676814 -0.05683,2.4154744 -0.621748,3.452599 -0.05895,0.108245 -0.109702,0.1978 -0.111954,0.19792 -0.0022,1.02e-4 -0.121573,0.01467 -0.265893,0.03399 -0.289861,0.03885 -1.350702,0.04482 -1.813264,0.01 C 9.7316552,10.735918 8.3937463,10.494746 7.1814406,10.161808 5.5137004,9.703794 3.8254937,8.9874277 2.7352438,8.2765731 L 2.5033378,8.126634 2.5013378,8.000685 C 2.472812,6.4978567 3.0199216,5.1034183 4.0647046,4.0242978 4.3933,3.6849029 4.6158781,3.5000158 4.998326,3.2446139 5.6752173,2.7925801 6.4770847,2.4863127 7.3213838,2.3589731 7.5077234,2.3308689 7.7952349,2.3170136 8.0830749,2.3169901 Z M 2.1934635,5.2937829 c 0,0.00318 -0.038674,0.092527 -0.083966,0.1999188 C 1.9172179,5.9496147 1.7494611,6.5845711 1.6836702,7.0950524 1.6645128,7.2437039 1.6433187,7.3693091 1.6376889,7.3749389 1.6111714,7.4014565 1.2391946,6.9275464 1.1218981,6.7172056 0.84363417,6.2182119 0.95679189,5.8551534 1.4777538,5.5656727 1.6028539,5.4961584 2.1934635,5.2719723 2.1934635,5.2937829 Z M 14.496474,8.698402 c 0.03375,0.00156 0.295895,0.3748776 0.375847,0.5357828 0.113864,0.229178 0.143077,0.4057121 0.09596,0.5677697 -0.07646,0.2630005 -0.297964,0.4526035 -0.76169,0.6517345 -0.102847,0.04417 -0.190497,0.07997 -0.195922,0.07997 -0.02065,0 -0.0082,-0.04519 0.07197,-0.243901 0.162471,-0.4029233 0.312825,-0.984297 0.381845,-1.4793994 0.0087,-0.06232 0.02298,-0.1123744 0.03199,-0.1119546 z M 2.801217,9.7999553 c -0.00343,-0.00394 -0.1794786,0.06942 -0.3918411,0.1639336 -0.3747845,0.1668001 -0.3865358,0.1737741 -0.3718491,0.2339041 0.036083,0.147731 0.47744,0.992643 0.6637307,1.271485 0.7409959,1.109127 1.7712932,1.94728 3.0047814,2.443009 0.6028421,0.242279 1.3294286,0.403072 2.0091852,0.445819 0.6468101,0.04067 1.3566447,-0.03322 2.0371737,-0.211914 0.8174082,-0.214641 1.5284182,-0.564727 2.3230572,-1.147534 l 0.159935,-0.119952 -0.251897,-0.347859 -0.253897,-0.349858 -0.14594,0.105957 c -0.944353,0.68933 -1.8391105,1.057827 -2.8668381,1.181521 -0.2987491,0.03595 -0.9797711,0.03791 -1.2634876,0.002 C 5.9032539,13.274274 4.5211194,12.482239 3.6208846,11.273358 3.3076043,10.852668 3.1121683,10.508997 2.885183,9.9858799 2.8424861,9.8874795 2.804646,9.8038961 2.801217,9.7999553 Z"
     id="path4162"
     inkscape:connector-curvature="0"
     class="ColorScheme-Text" />
</svg>
