<?xml version="1.0" encoding="UTF-8" standalone="no"?>
<svg
   xmlns:dc="http://purl.org/dc/elements/1.1/"
   xmlns:cc="http://creativecommons.org/ns#"
   xmlns:rdf="http://www.w3.org/1999/02/22-rdf-syntax-ns#"
   xmlns:svg="http://www.w3.org/2000/svg"
   xmlns="http://www.w3.org/2000/svg"
   xmlns:xlink="http://www.w3.org/1999/xlink"
   xmlns:sodipodi="http://sodipodi.sourceforge.net/DTD/sodipodi-0.dtd"
   xmlns:inkscape="http://www.inkscape.org/namespaces/inkscape"
   width="48"
   height="48"
   version="1.1"
   id="svg38"
   sodipodi:docname="deepin-deb-installer.svg"
   inkscape:version="0.91 r13725">
  <metadata
     id="metadata42">
    <rdf:RDF>
      <cc:Work
         rdf:about="">
        <dc:format>image/svg+xml</dc:format>
        <dc:type
           rdf:resource="http://purl.org/dc/dcmitype/StillImage" />
      </cc:Work>
    </rdf:RDF>
  </metadata>
  <sodipodi:namedview
     pagecolor="#ffffff"
     bordercolor="#666666"
     borderopacity="1"
     objecttolerance="10"
     gridtolerance="10"
     guidetolerance="10"
     inkscape:pageopacity="0"
     inkscape:pageshadow="2"
     inkscape:window-width="1920"
     inkscape:window-height="1050"
     id="namedview40"
     showgrid="false"
     inkscape:zoom="4.9166667"
     inkscape:cx="-19.372125"
     inkscape:cy="11.588287"
     inkscape:window-x="0"
     inkscape:window-y="0"
     inkscape:window-maximized="1"
     inkscape:current-layer="svg38" />
  <defs
     id="defs22">
    <linearGradient
       inkscape:collect="always"
       id="linearGradient4462">
      <stop
         style="stop-color:#ea2e5e;stop-opacity:1;"
         offset="0"
         id="stop4464" />
      <stop
         style="stop-color:#e62b73;stop-opacity:1"
         offset="1"
         id="stop4466" />
    </linearGradient>
    <linearGradient
       id="linearGradient4488">
      <stop
         id="stop4490"
         style="stop-color:#000000;stop-opacity:0.046875"
         offset="0" />
      <stop
         id="stop4492"
         style="stop-color:#000000;stop-opacity:0"
         offset="1" />
    </linearGradient>
    <linearGradient
       id="linearGradient4154">
      <stop
         offset="0"
         style="stop-color:#000000;stop-opacity:1"
         id="stop2" />
      <stop
         offset="1"
         style="stop-color:#000000;stop-opacity:0"
         id="stop4" />
    </linearGradient>
    <linearGradient
       id="linearGradient4192">
      <stop
         style="stop-color:#272b2d;stop-opacity:1"
         offset="0"
         id="stop7" />
      <stop
         style="stop-color:#33393e;stop-opacity:1"
         offset="1"
         id="stop9" />
    </linearGradient>
    <linearGradient
       id="linearGradient4140">
      <stop
         style="stop-color:#279646;stop-opacity:1"
         offset="0"
         id="stop12" />
      <stop
         style="stop-color:#76ff68;stop-opacity:1"
         offset="1"
         id="stop14" />
    </linearGradient>
    <linearGradient
       xlink:href="#linearGradient4140"
       id="linearGradient4146"
       x1="24.705"
       y1="43.939"
       x2="25.061"
       y2="4.405"
       gradientUnits="userSpaceOnUse"
       gradientTransform="translate(-51.050847)" />
    <linearGradient
       xlink:href="#linearGradient4192"
       id="linearGradient4166"
       x1="31"
       y1="34"
       x2="31"
       y2="24"
       gradientUnits="userSpaceOnUse" />
    <linearGradient
       xlink:href="#linearGradient4192"
       id="linearGradient4168"
       x1="18"
       y1="34"
       x2="18"
       y2="24"
       gradientUnits="userSpaceOnUse" />
    <linearGradient
       xlink:href="#linearGradient4154"
       id="linearGradient4182"
       x1="13"
       y1="24"
       x2="30"
       y2="41"
       gradientUnits="userSpaceOnUse" />
    <linearGradient
       xlink:href="#linearGradient4154"
       id="linearGradient4190"
       x1="29"
       y1="26"
       x2="36"
       y2="33"
       gradientUnits="userSpaceOnUse" />
    <style
       id="style4511">.cls-1{fill:#8e8e8e;}.cls-2{fill:none;stroke:#8e8e8e;stroke-linecap:square;stroke-miterlimit:10;}</style>
    <linearGradient
       gradientUnits="userSpaceOnUse"
       x2="13"
       y2="4"
       x1="43"
       y1="40"
       id="a">
      <stop
         id="stop2-36753"
         stop-color="#f27935" />
      <stop
         id="stop4-562"
         stop-color="#f2784b"
         offset="1" />
    </linearGradient>
    <linearGradient
       gradientUnits="userSpaceOnUse"
       x2="38"
       y2="41"
       x1="24.13"
       y1="27.13"
       id="b">
      <stop
         id="stop7-912"
         stop-color="#292c2f" />
      <stop
         id="stop9-70"
         stop-opacity="0"
         offset="1" />
    </linearGradient>
    <linearGradient
       id="a-36753"
       y1="527.8"
       y2="504.8"
       gradientUnits="userSpaceOnUse"
       x2="0"
       gradientTransform="translate(-384.57 504.56)">
      <stop
         stop-color="#ffffff"
         id="stop2-56" />
      <stop
         offset="1"
         stop-color="#ffffff"
         stop-opacity="0"
         id="stop4-29" />
    </linearGradient>
    <linearGradient
       id="b-1"
       y1="4"
       x1="8"
       y2="18"
       gradientUnits="userSpaceOnUse"
       x2="22"
       gradientTransform="translate(-3.0508475,1008.6312)">
      <stop
         stop-color="#292c2f"
         id="stop7-27" />
      <stop
         offset="1"
         stop-opacity="0"
         id="stop9-0" />
    </linearGradient>
    <linearGradient
       id="c"
       y1="520.8"
       y2="503.8"
       gradientUnits="userSpaceOnUse"
       x2="0"
       gradientTransform="translate(-384.57 504.56)">
      <stop
         stop-color="#197cf1"
         id="stop12-936" />
      <stop
         offset="1"
         stop-color="#20bcfa"
         id="stop14-06" />
    </linearGradient>
    <linearGradient
       id="d"
       y1="1050.34"
       y2="1038.36"
       gradientUnits="userSpaceOnUse"
       x2="0"
       gradientTransform="matrix(-2.83522 0 0 2.83875 47.655-1933.28)">
      <stop
         stop-color="#c61423"
         id="stop17" />
      <stop
         offset="1"
         stop-color="#dc2b41"
         id="stop19" />
    </linearGradient>
    <linearGradient
       id="e"
       y1="543.8"
       y2="503.8"
       gradientUnits="userSpaceOnUse"
       x2="0"
       gradientTransform="matrix(1.125 0 0 1-435.64 504.56)">
      <stop
         stop-color="#1d1e1e"
         id="stop22" />
      <stop
         offset="1"
         stop-color="#44484c"
         id="stop24" />
    </linearGradient>
    <linearGradient
       gradientTransform="translate(7.9999995,-1)"
       x2="28.613508"
       gradientUnits="userSpaceOnUse"
       y2="24.613508"
       x1="8"
       y1="4"
       id="b-3">
      <stop
         id="stop7-6"
         stop-color="#292c2f" />
      <stop
         id="stop9-7"
         stop-opacity="0"
         offset="1" />
    </linearGradient>
    <linearGradient
       id="d-5"
       y1="1050.34"
       y2="1038.36"
       gradientUnits="userSpaceOnUse"
       x2="0"
       gradientTransform="matrix(-2.83522,0,0,2.83875,-0.43047605,-1931.599)">
      <stop
         stop-color="#c61423"
         id="stop17-3" />
      <stop
         offset="1"
         stop-color="#dc2b41"
         id="stop19-5" />
    </linearGradient>
    <linearGradient
       id="d-2"
       y1="1050.34"
       y2="1038.36"
       gradientUnits="userSpaceOnUse"
       x2="0"
       gradientTransform="matrix(-1.0879841,0,0,1.0893387,-14.257079,-100.39215)">
      <stop
         stop-color="#c61423"
         id="stop17-9" />
      <stop
         offset="1"
         stop-color="#dc2b41"
         id="stop19-1" />
    </linearGradient>
    <linearGradient
       id="c-29"
       y1="523.8"
       x1="403.57"
       y2="536.8"
       x2="416.57"
       gradientUnits="userSpaceOnUse"
       gradientTransform="translate(-335.65475,-499.8)">
      <stop
         stop-color="#292c2f"
         id="stop2-1" />
      <stop
         offset="1"
         stop-opacity="0"
         id="stop4-2" />
    </linearGradient>
    <linearGradient
       xlink:href="#b-2"
       id="linearGradient4189"
       x1="14.369"
       y1="22.522"
       x2="26.522"
       y2="22.522"
       gradientUnits="userSpaceOnUse" />
    <linearGradient
       x1="428.816"
       gradientTransform="translate(-384.57,-499.8)"
       gradientUnits="userSpaceOnUse"
       x2="388.865"
       y2="499.679"
       y1="547.634"
       id="a-8">
      <stop
         stop-color="#2a2c2f"
         id="stop8" />
      <stop
         stop-color="#536161"
         offset="1"
         id="stop10" />
    </linearGradient>
    <linearGradient
       x1="36"
       gradientUnits="userSpaceOnUse"
       x2="14"
       y2="12"
       y1="44"
       id="b-2">
      <stop
         style="stop-color:#bfc9c9;stop-opacity:1"
         stop-color="#536161"
         id="stop13" />
      <stop
         style="stop-color:#fbfbfb;stop-opacity:1"
         stop-color="#f4f5f5"
         offset="1"
         id="stop15" />
    </linearGradient>
    <linearGradient
       xlink:href="#a-8"
       id="linearGradient4424"
       x1="25"
       y1="44"
       x2="25"
       y2="4"
       gradientUnits="userSpaceOnUse"
       gradientTransform="translate(48.915254)" />
    <linearGradient
       xlink:href="#b-2"
       id="linearGradient4428"
       gradientUnits="userSpaceOnUse"
       x1="31.586"
       y1="36.345"
       x2="1.203"
       y2="6.723" />
    <style
       id="style4511-26">.cls-1{fill:#8e8e8e;}.cls-2{fill:none;stroke:#8e8e8e;stroke-linecap:square;stroke-miterlimit:10;}</style>
    <linearGradient
       id="linearGradient3235">
      <stop
         id="stop3237"
         offset="0"
         style="stop-color:#fce94f;stop-opacity:1" />
      <stop
         style="stop-color:#fce94f;stop-opacity:1"
         offset="0.5"
         id="stop3239" />
      <stop
         id="stop3241"
         offset="0.75"
         style="stop-color:#edd400;stop-opacity:1" />
      <stop
         id="stop3243"
         offset="1"
         style="stop-color:#c4a000;stop-opacity:1" />
    </linearGradient>
    <linearGradient
       id="linearGradient19744">
      <stop
         id="stop19746"
         offset="0"
         style="stop-color:#ffffff;stop-opacity:1;" />
      <stop
         style="stop-color:#edd400;stop-opacity:1"
         offset="0.74871767"
         id="stop19748" />
      <stop
         id="stop19750"
         offset="1"
         style="stop-color:#ffffff;stop-opacity:1;" />
    </linearGradient>
    <linearGradient
       id="linearGradient14664">
      <stop
         style="stop-color:#ffffff;stop-opacity:1;"
         offset="0"
         id="stop14666" />
      <stop
         style="stop-color:#eeeeec;stop-opacity:1"
         offset="1"
         id="stop14668" />
    </linearGradient>
    <linearGradient
       id="linearGradient12294">
      <stop
         id="stop12296"
         offset="0"
         style="stop-color:#fef8c4;stop-opacity:1" />
      <stop
         id="stop12298"
         offset="1"
         style="stop-color:#edd400;stop-opacity:1" />
    </linearGradient>
    <linearGradient
       id="linearGradient8285">
      <stop
         style="stop-color:#ff6c6c;stop-opacity:1;"
         offset="0"
         id="stop8287" />
      <stop
         style="stop-color:#cc0000;stop-opacity:1;"
         offset="1"
         id="stop8289" />
    </linearGradient>
    <linearGradient
       id="linearGradient3570">
      <stop
         style="stop-color:#ffffff;stop-opacity:1;"
         offset="0"
         id="stop3572" />
      <stop
         style="stop-color:#fce94f;stop-opacity:1;"
         offset="1"
         id="stop3574" />
    </linearGradient>
    <linearGradient
       id="linearGradient2188">
      <stop
         style="stop-color:#c4a000;stop-opacity:1"
         offset="0"
         id="stop2190" />
      <stop
         id="stop3626"
         offset="0.20552924"
         style="stop-color:#edd400;stop-opacity:1" />
      <stop
         id="stop2848"
         offset="0.5"
         style="stop-color:#fce94f;stop-opacity:1" />
      <stop
         style="stop-color:#edd400;stop-opacity:1"
         offset="0.75"
         id="stop2850" />
      <stop
         style="stop-color:#c4a000;stop-opacity:1"
         offset="1"
         id="stop2192" />
    </linearGradient>
    <linearGradient
       x2="11.786"
       gradientUnits="userSpaceOnUse"
       y2="11.998"
       x1="34.5"
       y1="32.998"
       id="a-70">
      <stop
         id="stop2-3675"
         stop-color="#dd1627" />
      <stop
         id="stop4-35"
         stop-color="#df3e52"
         offset="1" />
    </linearGradient>
    <linearGradient
       gradientTransform="translate(-52)"
       gradientUnits="userSpaceOnUse"
       x2="73.03"
       y2="35.663"
       x1="46.23"
       y1="10.38"
       id="b-367">
      <stop
         id="stop7-5"
         stop-opacity=".731"
         stop-color="#f8bac0" />
      <stop
         id="stop9-3"
         stop-opacity="0"
         stop-color="#f8bac0"
         offset="1" />
    </linearGradient>
    <path
       d="m.735 43.06l23.265-42.35 23.09 42.31c0 0-2.212-.155-5.272-.291-2.851-.127-1.794.114-8.278-1.089-4.911-.91-8.522-2.865-15.253-2.727-7.453.153-17.549 4.149-17.549 4.149"
       id="c-62" />
    <linearGradient
       id="a-367535"
       y1="543.8"
       y2="503.8"
       x2="0"
       gradientUnits="userSpaceOnUse"
       gradientTransform="matrix(1.125 0 0 1-51.07 0)">
      <stop
         stop-color="#2a2c2f"
         id="stop2-62" />
      <stop
         offset="1"
         stop-color="#424649"
         id="stop4-91" />
    </linearGradient>
    <linearGradient
       id="b-27"
       y1="540.92"
       y2="522.55"
       x2="0"
       gradientUnits="userSpaceOnUse"
       gradientTransform="matrix(1 0 0 1.14286 0-77.4)">
      <stop
         stop-color="#197cf1"
         id="stop7-0" />
      <stop
         offset="1"
         stop-color="#05a0eb"
         id="stop9-93" />
    </linearGradient>
    <linearGradient
       id="c-6"
       y1="542.8"
       y2="533.8"
       gradientUnits="userSpaceOnUse"
       x2="0"
       gradientTransform="translate(0-28)">
      <stop
         stop-color="#bcb4a1"
         id="stop12-93" />
      <stop
         offset="1"
         stop-color="#c5bfad"
         id="stop14-6" />
    </linearGradient>
    <linearGradient
       id="d-06"
       y1="540.8"
       y2="531.8"
       gradientUnits="userSpaceOnUse"
       x2="0">
      <stop
         stop-color="#1e1f21"
         id="stop17-2" />
      <stop
         offset="1"
         stop-color="#242628"
         id="stop19-61" />
    </linearGradient>
    <linearGradient
       xlink:href="#d-06"
       id="e-8"
       y1="528.8"
       y2="519.8"
       gradientUnits="userSpaceOnUse"
       x2="0" />
    <linearGradient
       id="f"
       y1="20"
       x1="32"
       y2="30"
       x2="42"
       gradientUnits="userSpaceOnUse">
      <stop
         stop-color="#383e51"
         id="stop23" />
      <stop
         offset="1"
         stop-color="#655c6f"
         stop-opacity="0"
         id="stop25" />
    </linearGradient>
    <linearGradient
       xlink:href="#f"
       id="g"
       y1="531.8"
       x1="404.57"
       y2="543.8"
       x2="416.57"
       gradientUnits="userSpaceOnUse"
       gradientTransform="translate(-384.57-499.8)" />
    <linearGradient
       xlink:href="#f"
       id="h"
       y1="531.8"
       x1="404.57"
       y2="543.8"
       gradientUnits="userSpaceOnUse"
       x2="416.57"
       gradientTransform="translate(0-12)" />
    <linearGradient
       xlink:href="#f"
       id="i"
       y1="531.8"
       x1="404.57"
       y2="543.8"
       gradientUnits="userSpaceOnUse"
       x2="416.57"
       gradientTransform="translate(-12-12)" />
    <linearGradient
       xlink:href="#f"
       id="j"
       y1="531.8"
       x1="404.57"
       y2="543.8"
       gradientUnits="userSpaceOnUse"
       x2="416.57"
       gradientTransform="translate(-12)" />
    <style
       id="style4511-9">.cls-1{fill:#8e8e8e;}.cls-2{fill:none;stroke:#8e8e8e;stroke-linecap:square;stroke-miterlimit:10;}</style>
    <path
       d="m.735 43.06l23.265-42.35 23.09 42.31c0 0-2.212-.155-5.272-.291-2.851-.127-1.794.114-8.278-1.089-4.911-.91-8.522-2.865-15.253-2.727-7.453.153-17.549 4.149-17.549 4.149"
       id="c-09" />
    <linearGradient
       id="linearGradient4222">
      <stop
         offset="0"
         style="stop-color:#0166d0;stop-opacity:1"
         id="stop2-35" />
      <stop
         offset="1"
         style="stop-color:#51a6ff;stop-opacity:1"
         id="stop4-62" />
    </linearGradient>
    <linearGradient
       id="linearGradient4198">
      <stop
         style="stop-color:#208dff;stop-opacity:1"
         offset="0"
         id="stop7-9" />
      <stop
         style="stop-color:#51a6ff;stop-opacity:1"
         offset="1"
         id="stop9-1" />
    </linearGradient>
    <linearGradient
       xlink:href="#linearGradient4222"
       id="linearGradient4204"
       x1="402.571"
       y1="543.798"
       x2="402.571"
       y2="519.798"
       gradientUnits="userSpaceOnUse"
       gradientTransform="matrix(0.78135593,0,0,0.78135593,-346.93123,-382.93369)" />
    <linearGradient
       xlink:href="#linearGradient4198"
       id="linearGradient4212"
       x1="414.571"
       y1="543.798"
       x2="414.571"
       y2="519.798"
       gradientUnits="userSpaceOnUse"
       gradientTransform="matrix(0.78135593,0,0,0.78135593,-346.93123,-382.93369)" />
    <linearGradient
       xlink:href="#linearGradient4198"
       id="linearGradient4220"
       x1="24"
       y1="35"
       x2="24"
       y2="4"
       gradientUnits="userSpaceOnUse"
       gradientTransform="matrix(1,0,0,0.99924452,384.57143,499.82444)" />
    <linearGradient
       xlink:href="#linearGradient4227"
       id="linearGradient4244"
       x1="12"
       y1="21"
       x2="29"
       y2="38"
       gradientUnits="userSpaceOnUse" />
    <linearGradient
       id="linearGradient4227">
      <stop
         offset="0"
         style="stop-color:#292c2f;stop-opacity:1"
         id="stop16" />
      <stop
         offset="1"
         style="stop-color:#000000;stop-opacity:0;"
         id="stop18" />
    </linearGradient>
    <linearGradient
       id="linearGradient4454">
      <stop
         id="stop7-36"
         offset="0"
         style="stop-color:#d21e1e;stop-opacity:1" />
      <stop
         id="stop9-75"
         offset="1"
         style="stop-color:#e05e4c;stop-opacity:1" />
    </linearGradient>
    <linearGradient
       gradientTransform="translate(-384.57001,-499.79999)"
       gradientUnits="userSpaceOnUse"
       y2="525.725"
       x2="391.89"
       y1="544.092"
       x1="403.421"
       id="linearGradient4213"
       xlink:href="#linearGradient4454" />
    <linearGradient
       id="linearGradient4472">
      <stop
         id="stop13-1"
         offset="0"
         style="stop-color:#ffa92d;stop-opacity:1" />
      <stop
         id="stop15-2"
         offset="1"
         style="stop-color:#ffc169;stop-opacity:1" />
    </linearGradient>
    <linearGradient
       gradientTransform="translate(-384.57001,-499.79999)"
       gradientUnits="userSpaceOnUse"
       y2="505.319"
       x2="391.154"
       y1="523.203"
       x1="401.296"
       id="linearGradient4235"
       xlink:href="#linearGradient4472" />
    <linearGradient
       id="linearGradient4422-8">
      <stop
         id="stop19-3"
         offset="0"
         style="stop-color:#377d50;stop-opacity:1" />
      <stop
         id="stop21"
         offset="1"
         style="stop-color:#54d883;stop-opacity:1" />
    </linearGradient>
    <linearGradient
       gradientTransform="translate(-384.57001,-499.79999)"
       gradientUnits="userSpaceOnUse"
       y2="503.798"
       x2="413.779"
       y1="523.798"
       x1="424.602"
       id="linearGradient4257"
       xlink:href="#linearGradient4422-8" />
    <linearGradient
       id="linearGradient4438">
      <stop
         id="stop25-6"
         offset="0"
         style="stop-color:#375a7d;stop-opacity:1" />
      <stop
         id="stop27"
         offset="1"
         style="stop-color:#54a3d8;stop-opacity:1" />
    </linearGradient>
    <linearGradient
       gradientTransform="translate(-384.57001,-499.79999)"
       gradientUnits="userSpaceOnUse"
       y2="525.748"
       x2="412.118"
       y1="543.488"
       x1="420.884"
       id="linearGradient4279"
       xlink:href="#linearGradient4438" />
    <linearGradient
       gradientTransform="translate(0.00142264,-0.00198746)"
       gradientUnits="userSpaceOnUse"
       y2="44"
       x2="44"
       y1="4"
       x1="4"
       id="linearGradient4220-3"
       xlink:href="#linearGradient4154" />
    <linearGradient
       id="a-2"
       y1="4"
       x1="24"
       y2="44"
       x2="4"
       gradientUnits="userSpaceOnUse">
      <stop
         stop-color="#197cf1"
         id="stop2-367" />
      <stop
         offset="1"
         stop-color="#20bcfa"
         id="stop4-5" />
    </linearGradient>
    <linearGradient
       id="b-7"
       y1="44"
       x1="44"
       y2="4"
       x2="24"
       gradientUnits="userSpaceOnUse">
      <stop
         stop-color="#c61423"
         id="stop7-3" />
      <stop
         offset="1"
         stop-color="#dc2b41"
         id="stop9-56" />
    </linearGradient>
    <linearGradient
       id="c-0"
       x1="44"
       x2="4"
       gradientUnits="userSpaceOnUse">
      <stop
         stop-color="#42a603"
         id="stop12-06" />
      <stop
         offset="1"
         stop-color="#78da06"
         id="stop14-26" />
    </linearGradient>
    <linearGradient
       id="d-1"
       y1="522.8"
       y2="538.8"
       x1="400.57"
       gradientUnits="userSpaceOnUse"
       x2="416.57">
      <stop
         stop-color="#292c2f"
         id="stop17-8" />
      <stop
         offset="1"
         stop-opacity="0"
         id="stop19-29" />
    </linearGradient>
    <linearGradient
       gradientTransform="matrix(.70711.70711-.70711.70711 105.4-635.69)"
       x2="378.58"
       gradientUnits="userSpaceOnUse"
       y2="523.86"
       x1="430.51"
       y1="522.99"
       id="b-3-7">
      <stop
         id="stop7-67"
         stop-color="#fcfcfc" />
      <stop
         id="stop9-53"
         stop-color="#e9eaeb"
         offset="1" />
    </linearGradient>
    <linearGradient
       gradientTransform="translate(45.719-.92)"
       x2="3.614"
       gradientUnits="userSpaceOnUse"
       y2="49.804"
       x1="-28.649"
       y1="19.869"
       id="c-5">
      <stop
         id="stop12-6" />
      <stop
         id="stop14-2"
         stop-opacity="0"
         offset="1" />
    </linearGradient>
    <linearGradient
       gradientTransform="matrix(.70711.70711-.70711.70711 105.48-635.28)"
       x2="402.03"
       gradientUnits="userSpaceOnUse"
       y2="523.7"
       x1="388.34"
       y1="522.18"
       id="d-9">
      <stop
         id="stop17-1"
         stop-color="#ffffff" />
      <stop
         id="stop19-2"
         stop-color="#eff0f1"
         offset="1" />
    </linearGradient>
    <linearGradient
       gradientTransform="matrix(.70711.70711-.70711.70711 105.48-635.28)"
       x2="425.86"
       gradientUnits="userSpaceOnUse"
       y2="527.34"
       x1="422.48"
       y1="527.21"
       id="e-792">
      <stop
         id="stop22-9"
         stop-color="#f9f9f9" />
      <stop
         id="stop24-20"
         stop-color="#f6f6f6"
         offset="1" />
    </linearGradient>
    <linearGradient
       gradientUnits="userSpaceOnUse"
       x2="23.912"
       y2="24.326"
       x1="9.642"
       y1="8.627"
       id="f-02">
      <stop
         id="stop27-1"
         stop-color="#491309" />
      <stop
         id="stop29"
         stop-color="#b6642d"
         offset="1" />
    </linearGradient>
    <linearGradient
       gradientUnits="userSpaceOnUse"
       x2="33.609"
       y2="34.953"
       x1="32.641"
       y1="33.922"
       id="h-3">
      <stop
         id="stop37"
         stop-color="#cfcfcf" />
      <stop
         id="stop39"
         stop-opacity="0"
         stop-color="#ededed"
         offset="1" />
    </linearGradient>
    <linearGradient
       gradientTransform="matrix(.70711.70711-.70711.70711 105.48-635.28)"
       x2="409.82"
       gradientUnits="userSpaceOnUse"
       y2="523.27"
       x1="385.61"
       y1="522.24"
       id="o">
      <stop
         id="stop62"
         stop-color="#ffffff" />
      <stop
         id="stop64"
         stop-color="#dfe1e3"
         offset="1" />
    </linearGradient>
    <path
       d="M25 15A9 9 0 1 1 7 15 9 9 0 1 1 25 15"
       color="#000000"
       id="p" />
    <linearGradient
       xlink:href="#linearGradient4299"
       id="linearGradient4415"
       x1="408.571"
       y1="543.773"
       x2="408.632"
       y2="503.67"
       gradientUnits="userSpaceOnUse" />
    <linearGradient
       id="linearGradient4227-5">
      <stop
         offset="0"
         style="stop-color:#2e3436;stop-opacity:1"
         id="stop8-7" />
      <stop
         offset="1"
         style="stop-color:#555753;stop-opacity:1"
         id="stop10-0" />
    </linearGradient>
    <linearGradient
       xlink:href="#linearGradient4227-5"
       id="linearGradient4437"
       x1="408.571"
       y1="535.199"
       x2="408.571"
       y2="512.397"
       gradientUnits="userSpaceOnUse"
       gradientTransform="matrix(0.96481792,0,0,0.96481792,14.374377,18.428304)" />
    <linearGradient
       id="linearGradient4299">
      <stop
         offset="0"
         style="stop-color:#1064d3;stop-opacity:1"
         id="stop14-3" />
      <stop
         offset="1"
         style="stop-color:#14c6fd;stop-opacity:1"
         id="stop16-6" />
    </linearGradient>
    <linearGradient
       xlink:href="#linearGradient4154"
       id="linearGradient4392"
       x1="9.077"
       y1="9.083"
       x2="42.946"
       y2="42.953"
       gradientUnits="userSpaceOnUse" />
    <linearGradient
       id="linearGradient4258">
      <stop
         id="stop2-36"
         offset="0"
         style="stop-color:#000019;stop-opacity:1" />
      <stop
         id="stop4-7"
         offset="1"
         style="stop-color:#000019;stop-opacity:0.29064038" />
    </linearGradient>
    <linearGradient
       id="linearGradient4223">
      <stop
         id="stop7-6-2"
         offset="0"
         style="stop-color:#c6cdd1;stop-opacity:1" />
      <stop
         id="stop9-7-3"
         offset="1"
         style="stop-color:#e0e5e7;stop-opacity:1" />
    </linearGradient>
    <linearGradient
       id="linearGradient4217">
      <stop
         id="stop12-5"
         style="stop-color:#1f93b9;stop-opacity:1"
         offset="0" />
      <stop
         id="stop14-5"
         style="stop-color:#1a5c9b;stop-opacity:1"
         offset="1" />
    </linearGradient>
    <linearGradient
       id="linearGradient4191">
      <stop
         id="stop17-3-7"
         offset="0"
         style="stop-color:#dc2b41;stop-opacity:1" />
      <stop
         id="stop19-5-5"
         offset="1"
         style="stop-color:#c61423;stop-opacity:1" />
    </linearGradient>
    <linearGradient
       gradientTransform="translate(-50.199325,-1.1505466)"
       gradientUnits="userSpaceOnUse"
       y2="29"
       x2="24"
       y1="7"
       x1="24"
       id="linearGradient4197"
       xlink:href="#linearGradient4217" />
    <linearGradient
       gradientTransform="translate(-50.199325,0.84945337)"
       gradientUnits="userSpaceOnUse"
       y2="41"
       x2="24"
       y1="30"
       x1="24"
       id="linearGradient4207"
       xlink:href="#linearGradient4191" />
    <linearGradient
       gradientTransform="translate(-51.199325,0.84945337)"
       gradientUnits="userSpaceOnUse"
       y2="41"
       x2="11"
       y1="30"
       x1="11"
       id="linearGradient4215"
       xlink:href="#linearGradient4191" />
    <linearGradient
       gradientTransform="translate(-51.199325,-1.1505466)"
       gradientUnits="userSpaceOnUse"
       y2="4"
       x2="29"
       y1="44"
       x1="29"
       id="linearGradient4229"
       xlink:href="#linearGradient4223" />
    <radialGradient
       gradientTransform="translate(-51.199325,-1.1505466)"
       gradientUnits="userSpaceOnUse"
       r="19"
       fy="24"
       fx="24"
       cy="24"
       cx="24"
       id="radialGradient4264"
       xlink:href="#linearGradient4258" />
    <path
       id="c-2"
       d="m.735 43.06l23.265-42.35 23.09 42.31c0 0-2.212-.155-5.272-.291-2.851-.127-1.794.114-8.278-1.089-4.911-.91-8.522-2.865-15.253-2.727-7.453.153-17.549 4.149-17.549 4.149" />
    <linearGradient
       id="linearGradient4214">
      <stop
         offset="0"
         style="stop-color:#2f74c8;stop-opacity:1"
         id="stop41" />
      <stop
         offset="1"
         style="stop-color:#4699d7;stop-opacity:1"
         id="stop43" />
    </linearGradient>
    <linearGradient
       id="linearGradient4410">
      <stop
         style="stop-color:#383e51;stop-opacity:1"
         offset="0"
         id="stop48" />
      <stop
         style="stop-color:#655c6f;stop-opacity:0"
         offset="1"
         id="stop50" />
    </linearGradient>
    <linearGradient
       gradientTransform="matrix(0.97435896,0,0,0.96217953,-40.3793,-0.5771)"
       gradientUnits="userSpaceOnUse"
       y2="4"
       x2="23.649"
       y1="43.494"
       x1="23.649"
       id="linearGradient10438-5"
       xlink:href="#linearGradient4214" />
    <linearGradient
       id="linearGradient10454-6">
      <stop
         id="stop4727"
         offset="0"
         style="stop-color:#f38230;stop-opacity:1" />
      <stop
         id="stop4729"
         offset="1"
         style="stop-color:#fec335;stop-opacity:1" />
    </linearGradient>
    <linearGradient
       gradientTransform="translate(-41.33689,-1.72838)"
       gradientUnits="userSpaceOnUse"
       y2="4"
       x2="24"
       y1="44"
       x1="24"
       id="linearGradient4286-2"
       xlink:href="#linearGradient10454-6" />
    <linearGradient
       gradientUnits="userSpaceOnUse"
       y2="546.798"
       x2="419.571"
       y1="528.798"
       x1="401.571"
       id="linearGradient4243-0"
       xlink:href="#linearGradient4410"
       gradientTransform="translate(-425.90832,-501.52638)" />
    <linearGradient
       y2="546.798"
       x2="419.571"
       y1="528.798"
       x1="401.571"
       gradientTransform="translate(-431.40826,-516.82638)"
       gradientUnits="userSpaceOnUse"
       id="linearGradient4355-6"
       xlink:href="#linearGradient4410" />
    <linearGradient
       xlink:href="#linearGradient4300-8-4"
       id="linearGradient4309"
       x1="31"
       y1="44"
       x2="9.638"
       y2="7"
       gradientUnits="userSpaceOnUse"
       gradientTransform="matrix(0.75304829,0,0,0.75304829,-49.251481,5.0998124)" />
    <linearGradient
       id="linearGradient4903">
      <stop
         offset="0"
         style="stop-color:#eef1f2;stop-opacity:1"
         id="stop3" />
      <stop
         offset="1"
         style="stop-color:#f9fafb;stop-opacity:1"
         id="stop5" />
    </linearGradient>
    <linearGradient
       id="linearGradient4303">
      <stop
         style="stop-color:#197cf1;stop-opacity:1"
         offset="0"
         id="stop8-3" />
      <stop
         style="stop-color:#21c9fb;stop-opacity:1"
         offset="1"
         id="stop10-6" />
    </linearGradient>
    <linearGradient
       xlink:href="#linearGradient4303"
       id="linearGradient4498"
       x1="414.635"
       y1="531.769"
       x2="409.79"
       y2="523.379"
       gradientUnits="userSpaceOnUse"
       gradientTransform="matrix(0.75304829,0,0,0.75304829,-281.01401,-371.27218)" />
    <linearGradient
       xlink:href="#linearGradient4903"
       id="linearGradient4506"
       x1="413.504"
       y1="537.256"
       x2="405.396"
       y2="519.755"
       gradientUnits="userSpaceOnUse"
       gradientTransform="matrix(0.75304829,0,0,0.75304829,-338.85233,-371.27221)" />
    <linearGradient
       xlink:href="#linearGradient4227"
       id="linearGradient4518"
       x1="423.571"
       y1="527.798"
       x2="423.571"
       y2="544.668"
       gradientUnits="userSpaceOnUse"
       gradientTransform="matrix(0.53248555,-0.53248555,0.53248555,0.53248555,-522.90404,-29.338448)" />
    <linearGradient
       id="linearGradient4300-8-4">
      <stop
         style="stop-color:#f27935;stop-opacity:1"
         offset="0"
         id="stop21-3" />
      <stop
         style="stop-color:#f2784b;stop-opacity:1"
         offset="1"
         id="stop23-7" />
    </linearGradient>
    <linearGradient
       gradientTransform="matrix(0.32420382,0,0,0.32420382,387.58449,502.85674)"
       xlink:href="#linearGradient3347"
       id="linearGradient3359"
       x1="-23.688"
       y1="-24.028"
       x2="146.725"
       y2="140.728"
       gradientUnits="userSpaceOnUse" />
    <linearGradient
       id="linearGradient3347">
      <stop
         style="stop-color:#006680;stop-opacity:1;"
         offset="0"
         id="stop3-3" />
      <stop
         offset=".252"
         style="stop-color:#80b3ff;stop-opacity:1"
         id="stop5-6" />
      <stop
         style="stop-color:#0066ff;stop-opacity:1"
         offset=".459"
         id="stop7-7" />
      <stop
         offset=".899"
         style="stop-color:#002255;stop-opacity:1"
         id="stop9-5" />
      <stop
         style="stop-color:#006680;stop-opacity:0;"
         offset="1"
         id="stop11" />
    </linearGradient>
    <linearGradient
       gradientTransform="matrix(0.32420382,0,0,0.32420382,387.58449,502.85674)"
       xlink:href="#linearGradient3360"
       id="linearGradient3366"
       x1="-1.414"
       y1="88.048"
       x2="154.149"
       y2="89.816"
       gradientUnits="userSpaceOnUse" />
    <linearGradient
       id="linearGradient3360">
      <stop
         style="stop-color:#ffcc00;stop-opacity:1;"
         offset="0"
         id="stop15-35" />
      <stop
         offset=".245"
         style="stop-color:#ffff00;stop-opacity:1"
         id="stop17-6" />
      <stop
         offset=".586"
         style="stop-color:#ff0000;stop-opacity:1"
         id="stop19-291" />
      <stop
         style="stop-color:#ffcc00;stop-opacity:0;"
         offset="1"
         id="stop21-2" />
    </linearGradient>
    <linearGradient
       gradientUnits="userSpaceOnUse"
       x2="44"
       y2="24"
       x1="26.425"
       y1="37.11"
       id="a-7">
      <stop
         id="stop2-0"
         stop-color="#2980b9" />
      <stop
         id="stop4-9"
         stop-color="#1d99f3"
         offset="1" />
    </linearGradient>
    <linearGradient
       gradientUnits="userSpaceOnUse"
       x2="24.539"
       y2="10.624"
       x1="25.869"
       y1="39.24"
       id="b-36"
       xlink:href="#a-7" />
    <linearGradient
       gradientUnits="userSpaceOnUse"
       x2="37.922"
       y2="39.34"
       x1="8.84"
       y1="9.386"
       id="c-06">
      <stop
         id="stop8-2"
         stop-color="#faf8f8" />
      <stop
         id="stop10-61"
         stop-color="#bfd2d2"
         offset="1" />
    </linearGradient>
    <linearGradient
       gradientUnits="userSpaceOnUse"
       x2="24.839"
       y2="17.991"
       x1="27.04"
       y1="16.621"
       id="d-8">
      <stop
         id="stop13-7"
         stop-color="#fcfcfc" />
      <stop
         id="stop15-3"
         stop-color="#c7c7c7"
         offset="1" />
    </linearGradient>
    <linearGradient
       gradientUnits="userSpaceOnUse"
       x2="35.973"
       y2="31"
       x1="31.537"
       y1="27.6"
       id="e-9">
      <stop
         id="stop18-2" />
      <stop
         id="stop20"
         stop-opacity="0"
         offset="1" />
    </linearGradient>
    <linearGradient
       gradientTransform="translate(-10 5)"
       gradientUnits="userSpaceOnUse"
       x2="37"
       y2="30"
       x1="26"
       y1="19"
       id="f-0"
       xlink:href="#e-9" />
    <linearGradient
       gradientUnits="userSpaceOnUse"
       x2="19.574"
       y2="22.495"
       x1="3.783"
       y1="23.644"
       id="g-5">
      <stop
         id="stop24-2"
         stop-color="#2980b9" />
      <stop
         id="stop26"
         stop-color="#34495e"
         offset="1" />
    </linearGradient>
    <style
       id="style4552">.cls-1{fill:#8e8e8e;}.cls-2{fill:none;stroke:#8e8e8e;stroke-linecap:square;stroke-miterlimit:10;}</style>
    <linearGradient
       gradientTransform="matrix(0.65656345,0,0,0.65656345,61.545895,14.228869)"
       gradientUnits="userSpaceOnUse"
       x2="24.839001"
       y2="17.990999"
       x1="27.040001"
       y1="16.621"
       id="d-6">
      <stop
         id="stop4583-7"
         stop-color="#fcfcfc" />
      <stop
         id="stop4585-5"
         stop-color="#c7c7c7"
         offset="1" />
    </linearGradient>
    <linearGradient
       gradientTransform="matrix(0.65656345,0,0,0.65656345,61.545895,14.228869)"
       gradientUnits="userSpaceOnUse"
       x2="24.539"
       y2="10.624"
       x1="25.868999"
       y1="39.240002"
       id="b-3-3"
       xlink:href="#a-7" />
    <linearGradient
       id="a-3"
       y1="543.8"
       y2="512.8"
       x2="0"
       gradientUnits="userSpaceOnUse">
      <stop
         stop-color="#cea476"
         id="stop2-6" />
      <stop
         offset="1"
         stop-color="#dab58b"
         id="stop4-75" />
    </linearGradient>
    <linearGradient
       id="b-35"
       y1="512.8"
       y2="503.8"
       x2="0"
       gradientUnits="userSpaceOnUse">
      <stop
         stop-color="#ebc69a"
         id="stop7-62" />
      <stop
         offset="1"
         stop-color="#f4e0c8"
         stop-opacity="0"
         id="stop9-9" />
    </linearGradient>
    <linearGradient
       xlink:href="#b-35"
       id="c-1"
       y1="512.8"
       y2="503.8"
       gradientUnits="userSpaceOnUse"
       x2="0"
       gradientTransform="translate(0-1025.6)" />
    <linearGradient
       xlink:href="#a-3"
       id="d-2-9"
       y1="512.8"
       y2="503.8"
       x2="0"
       gradientUnits="userSpaceOnUse" />
    <linearGradient
       id="e-7"
       y1="516.8"
       x1="399.57"
       y2="534.8"
       x2="417.57"
       gradientUnits="userSpaceOnUse">
      <stop
         stop-color="#292c2f"
         id="stop14-0" />
      <stop
         offset="1"
         stop-opacity="0"
         id="stop16-9" />
    </linearGradient>
    <linearGradient
       id="a-36"
       y1="543.8"
       y2="503.8"
       x2="0"
       gradientUnits="userSpaceOnUse">
      <stop
         stop-color="#2a2c2f"
         id="stop2-7" />
      <stop
         offset="1"
         stop-color="#424649"
         id="stop4-53" />
    </linearGradient>
    <linearGradient
       id="b-5"
       y1="532.8"
       y2="506.8"
       x2="0"
       gradientUnits="userSpaceOnUse">
      <stop
         stop-color="#989a9b"
         id="stop7-629" />
      <stop
         offset="1"
         stop-color="#f6f6f7"
         id="stop9-12" />
    </linearGradient>
    <linearGradient
       id="c-7"
       y1="522.8"
       x1="403.57"
       y2="534.8"
       x2="413.26"
       gradientUnits="userSpaceOnUse">
      <stop
         stop-color="#020303"
         id="stop12-0" />
      <stop
         offset="1"
         stop-color="#424649"
         stop-opacity="0"
         id="stop14-9" />
    </linearGradient>
    <linearGradient
       xlink:href="#c-7"
       id="d-3"
       y1="521.8"
       x1="400.77"
       y2="533.6"
       gradientUnits="userSpaceOnUse"
       x2="412.57" />
    <path
       fill-rule="evenodd"
       id="e-6"
       d="m426.57 529.8l-16 11-8-8-2-9 17-5z" />
    <linearGradient
       id="a-367"
       y1="536.8"
       y2="503.8"
       x2="0"
       gradientUnits="userSpaceOnUse">
      <stop
         stop-color="#2a2c2f"
         id="stop2-5" />
      <stop
         offset="1"
         stop-color="#424649"
         id="stop4-3" />
    </linearGradient>
    <linearGradient
       id="b-56"
       y1="547.8"
       y2="536.8"
       x2="0"
       gradientUnits="userSpaceOnUse"
       gradientTransform="matrix(1 0 0 .54545 0 244)">
      <stop
         stop-color="#c6cdd1"
         id="stop7-2" />
      <stop
         offset="1"
         stop-color="#e0e5e7"
         id="stop9-91" />
    </linearGradient>
    <linearGradient
       id="c-27"
       y1="5.342"
       x1="42.799"
       y2="31.357"
       x2="11.999"
       gradientUnits="userSpaceOnUse">
      <stop
         stop-color="#4ce0c6"
         id="stop12-09" />
      <stop
         offset="1"
         stop-color="#3b85b5"
         id="stop14-36" />
    </linearGradient>
    <linearGradient
       id="d-0"
       y1="22.346"
       x1="29.855"
       y2="28.506"
       x2="54.32"
       gradientUnits="userSpaceOnUse">
      <stop
         stop-color="#ffc169"
         id="stop17-62" />
      <stop
         offset="1"
         stop-color="#ffa92d"
         id="stop19-6" />
    </linearGradient>
    <linearGradient
       id="e-1"
       y1="41.22"
       x1="24.392"
       y2="25.343"
       x2="20.643"
       gradientUnits="userSpaceOnUse">
      <stop
         stop-color="#334545"
         id="stop22-8" />
      <stop
         offset="1"
         stop-color="#536161"
         id="stop24-7" />
    </linearGradient>
    <linearGradient
       xlink:href="#e-1"
       id="f-9"
       y1="568.8"
       x1="431.57"
       y2="562.8"
       x2="439.57"
       gradientUnits="userSpaceOnUse"
       gradientTransform="matrix(-1 0 0 1 839.14-40)" />
    <linearGradient
       xlink:href="#e-1"
       id="g-2"
       y1="40.899"
       x1="56.03"
       y2="32.475"
       x2="40.647"
       gradientUnits="userSpaceOnUse" />
    <linearGradient
       xlink:href="#e-1"
       id="h-0"
       y1="32.15"
       x1="60.895"
       y2="27.06"
       x2="53.41"
       gradientUnits="userSpaceOnUse" />
    <linearGradient
       xlink:href="#e-1"
       id="i-9"
       y1="36.527"
       x1="33.32"
       y2="31.348"
       x2="24.78"
       gradientUnits="userSpaceOnUse" />
    <linearGradient
       xlink:href="#e-1"
       id="j-2"
       y1="36.765"
       x1="34"
       y2="49.571"
       x2="40.25"
       gradientUnits="userSpaceOnUse" />
    <linearGradient
       id="a-3675"
       y1="543.8"
       y2="503.8"
       x2="0"
       gradientUnits="userSpaceOnUse"
       gradientTransform="matrix(1.125 0 0 1-51.07 0)">
      <stop
         stop-color="#2a2c2f"
         id="stop2-3" />
      <stop
         offset="1"
         stop-color="#424649"
         id="stop4-56" />
    </linearGradient>
    <linearGradient
       id="b-2-9"
       y1="540.92"
       y2="522.55"
       x2="0"
       gradientUnits="userSpaceOnUse"
       gradientTransform="matrix(1 0 0 1.14286 0-77.4)">
      <stop
         stop-color="#197cf1"
         id="stop7-91" />
      <stop
         offset="1"
         stop-color="#05a0eb"
         id="stop9-2" />
    </linearGradient>
    <linearGradient
       id="c-70"
       y1="542.8"
       y2="533.8"
       gradientUnits="userSpaceOnUse"
       x2="0"
       gradientTransform="translate(0-28)">
      <stop
         stop-color="#bcb4a1"
         id="stop12-9" />
      <stop
         offset="1"
         stop-color="#c5bfad"
         id="stop14-360" />
    </linearGradient>
    <linearGradient
       id="d-62"
       y1="540.8"
       y2="531.8"
       gradientUnits="userSpaceOnUse"
       x2="0">
      <stop
         stop-color="#1e1f21"
         id="stop17-61" />
      <stop
         offset="1"
         stop-color="#242628"
         id="stop19-8" />
    </linearGradient>
    <linearGradient
       xlink:href="#d-62"
       id="e-79"
       y1="528.8"
       y2="519.8"
       gradientUnits="userSpaceOnUse"
       x2="0" />
    <style
       id="style4511-2">.cls-1{fill:#8e8e8e;}.cls-2{fill:none;stroke:#8e8e8e;stroke-linecap:square;stroke-miterlimit:10;}</style>
    <linearGradient
       inkscape:collect="always"
       xlink:href="#linearGradient4488"
       id="linearGradient4471"
       gradientUnits="userSpaceOnUse"
       gradientTransform="matrix(0.30380027,0,0,0.30380027,-62.470744,2.2158784)"
       x1="288.11157"
       y1="141.78452"
       x2="287.57547"
       y2="79.007812" />
    <linearGradient
       inkscape:collect="always"
       xlink:href="#linearGradient4462"
       id="linearGradient4468"
       x1="3.0008507"
       y1="23.808192"
       x2="45.247601"
       y2="23.808192"
       gradientUnits="userSpaceOnUse" />
  </defs>
  <style
     id="style4485"
     type="text/css">
	.st0{fill:#005C75;}
	.st1{fill:url(#SVGID_1_);}
	.st2{opacity:0.45;fill:#231F20;}
	.st3{fill:#FFFFFF;}
</style>
  <path
     style="opacity:1;fill:url(#linearGradient4471);fill-opacity:1;stroke:none;stroke-width:1.10000002;stroke-linecap:square;stroke-linejoin:bevel;stroke-miterlimit:4;stroke-dasharray:none;stroke-dashoffset:0;stroke-opacity:0.078125"
     d="m 3.1679108,26.442743 0,1.668528 c 0,9.574276 5.58322,17.282199 17.1457302,17.282199 l 6.93044,0 c 15.13236,0 17.83641,-11.322632 17.83641,-17.282199 l 0,-1.668528 c 0,5.959567 -2.70405,17.282198 -17.83641,17.282198 l -6.93044,0 c -11.5625102,0 -17.1457302,-7.707923 -17.1457302,-17.282198 z"
     id="path4467"
     inkscape:connector-curvature="0" />
  <path
     style="opacity:1;fill:url(#linearGradient4468);fill-opacity:1;stroke:#000000;stroke-width:0.3341803;stroke-linecap:square;stroke-linejoin:bevel;stroke-miterlimit:4;stroke-dasharray:none;stroke-dashoffset:0;stroke-opacity:0.078125"
     d="m 19.781051,2.9645209 8.49507,0 c 13.90774,0 16.80439,11.2468651 16.80439,17.2820841 l 0,7.123176 c 0,5.959564 -2.70417,17.282082 -17.83653,17.282082 l -6.9301,0 c -11.5625102,0 -17.1459402,-7.707808 -17.1459402,-17.282082 l 0,-7.123176 c 0,-9.574274 5.47018,-17.2820841 16.6131102,-17.2820841 z"
     id="path4469"
     inkscape:connector-curvature="0"
     sodipodi:nodetypes="sssssssss" />
  <path
     d="m 25.513832,35.646382 c -1.267714,-0.207484 -3.08494,-0.912692 -4.210787,-1.633939 -2.472647,-1.584459 -4.087489,-3.343267 -5.086897,-5.540491 -0.332033,-0.729948 -0.513429,-1.296513 -1.032376,-3.223583 -0.128983,-0.479154 -0.289614,-1.006844 -0.356843,-1.172562 -0.113555,-0.279787 -0.118559,-0.373952 -0.06908,-1.306756 0.04684,-0.886382 0.199478,-2.085435 0.281371,-2.211707 0.01543,-0.02321 0.05337,-0.03099 0.08312,-0.01932 0.100907,0.06004 0.194294,-0.213294 0.286069,-0.834177 0.05018,-0.340136 0.129261,-0.696882 0.175559,-0.792785 0.04628,-0.0966 0.124535,-0.307238 0.17421,-0.469884 0.113833,-0.374536 0.269377,-0.662287 0.749796,-1.388552 0.211292,-0.319649 0.430911,-0.667514 0.488077,-0.773271 0.06727,-0.12384 0.140714,-0.185621 0.208179,-0.17207 0.06505,0.01932 0.172265,-0.06783 0.284513,-0.214267 0.488495,-0.633253 2.789155,-2.501752 3.002088,-2.437941 0.0581,0.01932 0.300858,-0.06171 0.53949,-0.174002 0.431564,-0.204774 0.621758,-0.252142 0.621758,-0.154682 0,0.02891 -0.06241,0.09104 -0.138573,0.141186 -0.133847,0.08715 -0.131068,0.08882 0.07686,0.04045 0.118559,-0.02724 0.318343,-0.06574 0.443879,-0.08492 0.155071,-0.02516 0.218145,-0.06171 0.196643,-0.113972 -0.01987,-0.04642 0.02571,-0.0909 0.110775,-0.112026 0.212085,-0.05421 0.542562,-0.04642 0.542562,0.01932 0,0.07158 -0.188929,0.143021 -0.338886,0.1294 -0.102018,-0.01932 -0.107439,0 -0.03072,0.04837 0.0763,0.05017 0.07728,0.06004 0.0056,0.06171 -0.04809,5.98e-4 -0.07158,0.01932 -0.05198,0.03489 0.01987,0.01932 0.147899,-0.02126 0.285485,-0.08715 0.137879,-0.06574 0.389909,-0.148803 0.560464,-0.183689 0.209958,-0.04253 0.310101,-0.0909 0.310101,-0.152723 0,-0.07728 0.09757,-0.08492 0.754743,-0.05198 0.41508,0.02127 1.041509,0.08326 1.391986,0.137184 0.637255,0.09868 0.637297,0.09868 0.874776,-0.031 0.28486,-0.154669 0.742985,-0.174016 0.863364,-0.03878 0.04406,0.05045 0.165315,0.13343 0.269391,0.183675 0.169943,0.08312 0.181173,0.08312 0.109385,0 -0.136488,-0.154682 -9.31e-4,-0.150804 0.525674,0.01932 1.697722,0.536001 3.081785,1.490627 4.108727,2.833952 0.243566,0.318482 0.258313,0.461933 0.02752,0.268014 l -0.132041,-0.110219 0.100907,0.185608 c 0.05546,0.102574 0.100768,0.217158 0.100768,0.255449 0,0.0385 0.163174,0.320414 0.362792,0.627096 0.449702,0.691447 0.575516,0.924478 0.545327,1.009749 -0.0139,0.03683 -0.212168,-0.206915 -0.442753,-0.541033 -0.230556,-0.334341 -0.571735,-0.784682 -0.758204,-1.000854 -0.278397,-0.322748 -0.351353,-0.378053 -0.408172,-0.309016 -0.03795,0.04642 -0.130929,0.09284 -0.206442,0.102574 l -0.137184,0.01932 0.135655,0.250988 c 0.07464,0.137183 0.14562,0.22294 0.157795,0.189472 0.06477,-0.18369 0.366753,0.0581 0.50402,0.40239 0.04448,0.112026 0.16298,0.342068 0.263066,0.51165 0.100073,0.170124 0.169568,0.320205 0.154099,0.334702 -0.01543,0.01932 -0.106745,-0.03099 -0.20287,-0.102575 l -0.17478,-0.1294 0.119253,0.193377 c 0.0656,0.106328 0.17535,0.23588 0.244053,0.288488 0.08562,0.06574 0.126481,0.168192 0.130372,0.330268 0.0069,0.297383 0.187734,0.648736 0.286042,0.556141 0.153153,-0.145008 0.184662,-0.05421 0.145912,0.418416 -0.02849,0.348253 -0.0139,0.577795 0.05407,0.821403 0.102158,0.369922 0.08006,0.461197 -0.06908,0.288321 -0.09507,-0.110219 -0.09604,-0.110219 -0.05351,0 0.09118,0.244623 0.159491,0.610639 0.14056,0.754119 -0.03544,0.268014 -0.142103,0.156614 -0.178852,-0.18754 l -0.03586,-0.335105 -0.0083,0.356551 c -0.0056,0.196088 -0.05462,0.575086 -0.10869,0.842113 -0.05448,0.269752 -0.08228,0.59674 -0.06241,0.735369 0.03725,0.261232 0.01251,0.271309 -0.220563,0.08492 -0.09437,-0.07547 -0.110358,-0.06171 -0.175169,0.166288 -0.05448,0.191403 -0.05407,0.299134 0.0011,0.458847 0.04045,0.115918 0.06366,0.271101 0.05198,0.346697 -0.02724,0.17403 -0.175363,0.228959 -0.175363,0.0638 0,-0.207082 -0.08353,-0.133431 -0.338858,0.298953 -0.689502,1.166961 -1.780393,2.070174 -3.015111,2.496331 -0.727905,0.251002 -1.21615,0.344195 -2.037053,0.388491 l -0.739329,0.04059 0.365279,0.106327 c 0.294576,0.08492 0.467549,0.09868 0.893359,0.06574 0.557878,-0.04253 1.212924,-0.156614 1.509932,-0.263177 0.118559,-0.04253 0.198603,-0.04462 0.239564,-0.01932 0.0966,0.09104 -0.761457,0.449007 -1.270787,0.530205 -0.86663,0.137183 -2.026753,-0.01932 -3.050831,-0.392341 -0.694839,-0.258702 -1.725895,-0.932206 -1.567919,-1.024051 0.03002,-0.01932 0.226137,0.07158 0.435914,0.19549 0.268223,0.160478 0.381528,0.20205 0.381528,0.141172 0,-0.114111 0.03975,-0.108273 0.252726,0.03489 0.19257,0.129539 0.784265,0.36895 1.210533,0.490566 0.464658,0.13343 0.284485,-0.02877 -0.338857,-0.302234 -1.970991,-0.866075 -2.789239,-1.732553 -3.196994,-3.385033 -0.149595,-0.606025 0.0083,-1.934631 0.283429,-2.350559 0.06894,-0.106327 0.125508,-0.235129 0.125508,-0.288098 0,-0.230321 0.407171,-0.838444 0.824933,-1.232161 0.736189,-0.693949 1.501552,-0.982062 2.495136,-0.939336 0.480308,0.02126 0.685429,0.06004 1.085151,0.210556 0.453385,0.170151 1.024259,0.526716 0.849438,0.530219 -0.04114,9.59e-4 -0.221328,-0.05615 -0.400472,-0.125647 -0.272365,-0.106327 -0.446951,-0.127593 -1.065081,-0.131485 -0.867951,0 -1.292219,0.112026 -1.909974,0.522672 -0.875776,0.580868 -1.36277,1.249896 -1.535242,2.10923 -0.115779,0.576406 -0.119254,0.736314 -0.02891,1.3083 0.05198,0.329489 0.08895,0.426171 0.15389,0.402793 0.05462,-0.01932 0.08562,0.01932 0.08562,0.07936 0,0.204399 0.471427,1.032974 0.798387,1.403272 0.786962,0.891607 2.06,1.460479 3.267879,1.460479 0.626901,0 1.1337,-0.113972 1.600178,-0.358316 0.187345,-0.09868 0.423767,-0.218298 0.525411,-0.266847 0.358663,-0.172084 0.5812,-0.36717 0.841376,-0.740178 0.144689,-0.207498 0.301872,-0.377066 0.349379,-0.377066 0.07019,0 0.06699,0.02891 -0.01543,0.160464 -0.274992,0.427728 0.370409,-0.350185 0.704666,-0.849271 l 0.374314,-0.559185 -0.04072,-0.367392 c -0.03919,-0.352896 -0.0335,-0.37455 0.145606,-0.551679 0.172473,-0.170166 0.187928,-0.221398 0.207887,-0.677744 0.01723,-0.40838 0.0056,-0.493081 -0.07102,-0.493678 -0.07102,-3.76e-4 -0.101463,-0.108274 -0.132319,-0.465019 -0.04045,-0.472775 -0.448841,-2.063794 -0.54391,-2.119098 -0.02877,-0.01932 -0.108273,-0.170152 -0.176906,-0.339942 -0.231586,-0.574488 -0.637812,-1.127126 -1.271134,-1.72887 -0.911288,-0.866075 -2.059235,-1.534728 -3.143566,-1.831347 -0.922366,-0.252142 -2.488658,-0.160478 -3.60429,0.210751 -0.54448,0.181743 -1.080953,0.421154 -1.17145,0.524034 -0.04114,0.04642 -0.100629,0.06963 -0.132179,0.05198 -0.03364,-0.01932 -0.02405,-0.07158 0.02182,-0.123701 0.205511,-0.233573 -0.476458,0.193766 -0.915527,0.573543 -0.265458,0.229709 -0.492303,0.424434 -0.504131,0.43294 -0.01251,0.01932 0.03975,3.89e-4 0.114944,-0.01932 0.124675,-0.03099 0.130234,-0.0214 0.06241,0.0966 -0.04337,0.07533 -0.269252,0.213836 -0.546106,0.332173 -0.465158,0.198978 -0.766016,0.417456 -1.005065,0.730351 -0.09563,0.125647 -0.100767,0.152764 -0.0253,0.123701 0.05296,-0.01932 0.09632,-0.01932 0.09632,0.02724 0,0.16626 -0.159894,0.35113 -0.396664,0.459598 -0.524687,0.240384 -1.446358,1.523734 -1.940092,2.701703 -0.220021,0.524993 -0.216547,0.506827 -0.09674,0.506827 0.126203,0 0.117446,0.135376 -0.05587,0.860071 -0.252295,1.056352 -0.252615,1.022522 0.02196,2.508548 0.334799,1.810665 0.530344,2.415494 0.902212,2.790253 0.08715,0.08687 0.17207,0.27495 0.209834,0.462906 0.04517,0.224302 0.120643,0.37223 0.262677,0.513193 0.1294,0.127593 0.172459,0.207304 0.122728,0.224302 -0.09743,0.03294 0.20761,0.462156 0.485909,0.682956 0.139963,0.112165 0.243789,0.148956 0.35619,0.127593 0.246305,-0.04462 0.497168,0.08895 0.882545,0.470634 0.400528,0.396191 0.440668,0.502769 0.175573,0.465992 -0.171111,-0.02321 -0.174794,-0.01932 -0.09076,0.102575 0.04851,0.06963 0.226874,0.237061 0.396664,0.372034 0.238479,0.189485 0.299871,0.271504 0.26996,0.360429 -0.04309,0.127593 0.07964,0.247125 0.357497,0.347281 0.172264,0.06199 0.227749,0.196073 0.09799,0.236658 -0.0392,0.01932 0.20337,0.247722 0.539114,0.52327 0.378262,0.31017 0.632669,0.480127 0.668932,0.447048 0.0959,-0.08715 0.218603,-0.06171 0.220785,0.04642 0.0011,0.11981 0.111053,0.243817 0.502324,0.57717 0.247222,0.210584 0.308906,0.237076 0.460446,0.197825 0.138713,-0.03683 0.226026,-0.01932 0.421432,0.112026 0.389895,0.248486 0.626262,0.34767 0.828715,0.34767 0.199145,0 0.227512,0.05421 0.123979,0.236116 -0.05462,0.0966 -0.04309,0.112026 0.0827,0.112026 0.08089,0 0.307738,0.05212 0.504714,0.116057 0.447868,0.14498 0.634698,0.15464 0.52245,0.02696 -0.165704,-0.189471 0.0083,-0.137183 0.602508,0.175947 0.82788,0.437777 1.246644,0.487661 2.895191,0.345752 0.244052,-0.0214 0.323457,-0.01932 0.323457,0.05017 0,0.05045 -0.211807,0.125647 -0.600729,0.215032 -0.511274,0.116057 -0.784154,0.139198 -1.832931,0.15079 -0.826435,0.01932 -1.390929,-0.01932 -1.714109,-0.06366 z M 24.67108,26.939545 c 0,-0.01932 -0.07617,-0.06574 -0.169568,-0.11981 l -0.169582,-0.0966 0.145454,0.11981 c 0.14195,0.115917 0.193488,0.14302 0.193488,0.0966 z m 8.482855,-6.087126 c -0.01987,-0.04642 -0.03419,-0.03294 -0.03711,0.03475 -0.0011,0.06171 0.01251,0.0966 0.03225,0.07533 0.02043,-0.01932 0.02266,-0.06963 0.0056,-0.112026 z M 19.133869,14.721387 c 0.07658,-0.09104 0.0745,-0.09479 -0.02321,-0.02126 -0.05907,0.04448 -0.107995,0.08882 -0.107995,0.10049 0,0.04642 0.05073,0.01932 0.131067,-0.08117 z m 0.700705,-0.537377 c 0.06157,-0.06366 0.09771,-0.115918 0.08061,-0.115918 -0.01737,0 -0.08089,0.05198 -0.142243,0.115918 -0.06116,0.0638 -0.09771,0.115918 -0.08061,0.115918 0.01751,0 0.08089,-0.05198 0.142256,-0.115918 z m 0.775522,-0.408172 c 0.203093,-0.06574 0.318496,-0.07547 0.361361,-0.03683 0.04295,0.04059 0.201688,0.01932 0.497501,-0.07533 0.239049,-0.07339 0.423655,-0.145009 0.410215,-0.156628 -0.0139,-0.01932 -0.21025,0.03683 -0.437346,0.106327 -0.311963,0.09868 -0.424212,0.112026 -0.459001,0.06004 -0.05879,-0.08882 -0.619395,0.08715 -0.860376,0.271295 l -0.164551,0.125647 0.176935,-0.10049 c 0.09715,-0.05421 0.311226,-0.143021 0.475346,-0.195295 z m 1.776266,-0.146996 c 0.179047,-0.05017 0.314631,-0.10049 0.301566,-0.114111 -0.02877,-0.02696 -0.666165,0.144995 -0.666165,0.179826 0,0.03475 0.0056,0.0328 0.364599,-0.06574 z m 1.021674,-0.316536 0.246443,-0.04253 -0.215643,0 c -0.118559,0 -0.28493,0.03489 -0.369644,0.08325 -0.0998,0.0581 -0.110636,0.07533 -0.03072,0.04642 0.06783,-0.02321 0.234143,-0.06004 0.369672,-0.08325 z m 0.489328,-0.110219 c 0.01988,-0.02891 -0.02099,-0.03878 -0.08882,-0.02321 -0.143785,0.03683 -0.162034,0.07533 -0.03433,0.07533 0.04878,0 0.10452,-0.02516 0.123145,-0.05198 z m 1.989254,0.01932 c -0.02057,-0.01932 -0.07353,-0.0214 -0.118142,0 -0.04934,0.01932 -0.03433,0.0328 0.03711,0.03475 0.06505,0 0.101324,-0.01932 0.08103,-0.03099 z m -0.368421,-0.0638 c -0.05907,-0.01932 -0.156197,-0.01932 -0.215616,0 -0.05907,0.01932 -0.0083,0.02724 0.107996,0.02724 0.118558,0 0.16708,-0.01932 0.107995,-0.02724 z m -0.614448,-0.06004 c -0.126342,-0.01932 -0.347989,-0.01932 -0.4929,-3.89e-4 -0.144842,0.01932 -0.04184,0.02321 0.229431,0.02321 0.271086,1.94e-4 0.389645,-0.01932 0.263469,-0.02321 z m -0.803862,-0.05017 c -0.02043,-0.01932 -0.07367,-0.02127 -0.118142,0 -0.0492,0.01932 -0.03475,0.0328 0.03711,0.03475 0.06505,0 0.101185,-0.01932 0.08103,-0.031 z m -0.417054,13.960147 c -0.627568,-0.423851 -0.860098,-0.643107 -0.860098,-0.81116 0,-0.08882 0.02154,-0.16241 0.0474,-0.16241 0.08882,0 1.138037,1.032376 1.115062,1.09734 -0.0139,0.0385 -0.139963,-0.01932 -0.302415,-0.123701 z m -0.322957,-1.076256 c -0.325904,-0.310518 -0.430341,-0.477598 -0.29862,-0.477598 0.07908,0 0.685679,0.654727 0.685679,0.740192 0,0.04059 -0.0069,0.07339 -0.01737,0.07339 -0.0083,0 -0.175961,-0.150791 -0.369699,-0.335495 z m 3.606222,-1.270981 c -0.172098,-0.06574 -0.06449,-0.187539 0.215629,-0.243441 0.161076,-0.0328 0.416734,-0.112026 0.568414,-0.175933 0.151568,-0.0638 0.286694,-0.106328 0.300107,-0.09465 0.0139,0.01932 -0.05532,0.141173 -0.152639,0.286973 -0.175767,0.262191 -0.178852,0.263748 -0.515736,0.259286 -0.1864,0 -0.373536,-0.01932 -0.4159,-0.0328 z m 1.848345,-1.299418 c -0.166274,-0.0638 -0.173251,-0.170151 -0.03419,-0.535223 0.119253,-0.313825 0.242968,-0.375523 0.17421,-0.08687 -0.02474,0.102574 -0.05782,0.254059 -0.07339,0.333923 l -0.02863,0.145008 0.123006,-0.131484 c 0.07269,-0.07742 0.140422,-0.261996 0.165134,-0.449563 0.02321,-0.174002 0.06644,-0.302999 0.0966,-0.285611 0.07617,0.04462 0.06811,0.503728 -0.0139,0.812522 -0.072,0.269571 -0.136905,0.30108 -0.408575,0.198005 z M 14.234511,22.63152 c -0.02057,-0.05045 -0.03739,-0.248681 -0.03739,-0.440307 0,-0.25292 0.02113,-0.34204 0.07686,-0.324639 0.09145,0.02877 0.145147,0.856777 0.05546,0.856777 -0.03169,0 -0.07464,-0.04045 -0.09507,-0.0909 z m 14.821983,-1.358405 c -0.0959,-0.121756 -0.125369,-0.218687 -0.09799,-0.320595 0.05573,-0.209402 0.201619,-0.179811 0.309253,0.0638 0.167247,0.377622 0.02196,0.554737 -0.211126,0.257354 z M 14.221835,20.350763 c -0.0056,-0.329268 -1.3e-5,-0.339331 0.154682,-0.333924 0.131068,0 0.162813,0.03655 0.17788,0.183689 0.01737,0.164342 -0.172667,0.490552 -0.285291,0.490552 -0.02321,0 -0.04462,-0.152709 -0.04712,-0.33972 z m 15.970361,-7.139781 c 0.0083,-0.519975 0.101185,-0.695937 0.173835,-0.332033 0.05045,0.253504 -0.0139,0.70133 -0.111331,0.777913 -0.05323,0.04058 -0.06908,-0.07158 -0.06241,-0.44588 z m -8.095573,-0.311518 c 0.02474,-0.06963 0.87465,-0.398332 1.031445,-0.398332 0.184273,0 -0.146204,0.212669 -0.527287,0.339539 -0.424934,0.141186 -0.538072,0.154682 -0.504158,0.06004 z"
     id="path4181-7-9"
     inkscape:connector-curvature="0"
     inkscape:label="Capa 1"
     style="opacity:1;fill:#f6f6f6;fill-opacity:1;stroke:#000000;stroke-width:0;stroke-miterlimit:4;stroke-dasharray:none;stroke-opacity:1" />
  <path
     style="opacity:1;fill:#f6f6f6;fill-opacity:0.07981221;stroke:#000000;stroke-width:0;stroke-miterlimit:4;stroke-dasharray:none;stroke-opacity:1"
     inkscape:label="Capa 1"
     inkscape:connector-curvature="0"
     id="path4472"
     d="M 25.027263,42.129141 C 23.176103,41.826166 20.522526,40.796397 18.878525,39.743207 15.26788,37.429525 12.909832,34.861252 11.450462,31.652789 10.965616,30.586894 10.700735,29.759576 9.9429503,26.945602 9.7546053,26.245924 9.5200458,25.475373 9.4218758,25.233386 c -0.165817,-0.408555 -0.173124,-0.546058 -0.100873,-1.908171 0.0684,-1.294325 0.291285,-3.045224 0.4108685,-3.229611 0.02253,-0.03389 0.07793,-0.04525 0.121374,-0.02821 0.1473477,0.08767 0.2837147,-0.311459 0.4177277,-1.218094 0.07327,-0.496678 0.188752,-1.017611 0.256357,-1.157652 0.06758,-0.141059 0.181851,-0.44864 0.254388,-0.686141 0.166223,-0.546911 0.393354,-0.967095 1.094878,-2.027612 0.308536,-0.466763 0.629231,-0.974727 0.712707,-1.129157 0.09823,-0.180836 0.205476,-0.27105 0.30399,-0.251263 0.09499,0.02821 0.251548,-0.09905 0.415456,-0.31288 0.713317,-0.924698 4.072821,-3.6531455 4.383753,-3.5599665 0.08484,0.02821 0.439324,-0.09011 0.787782,-0.254084 0.630185,-0.299018 0.907913,-0.368186 0.907913,-0.225872 0,0.04222 -0.09113,0.13294 -0.202349,0.206165 -0.195448,0.127259 -0.19139,0.129698 0.112233,0.05907 0.173124,-0.03978 0.464856,-0.096 0.648168,-0.124003 0.22644,-0.03674 0.318543,-0.09011 0.287145,-0.166426 -0.02901,-0.06778 0.03754,-0.132735 0.161757,-0.163584 0.309694,-0.07916 0.792268,-0.06778 0.792268,0.02821 0,0.104523 -0.27588,0.208844 -0.494853,0.188954 -0.14897,-0.02821 -0.156886,0 -0.04486,0.07063 0.111416,0.07326 0.112847,0.08767 0.0082,0.09011 -0.07022,8.73e-4 -0.104523,0.02821 -0.0759,0.05095 0.02902,0.02821 0.215967,-0.03104 0.416875,-0.127259 0.201336,-0.096 0.569359,-0.217287 0.818409,-0.268229 0.306588,-0.0621 0.45282,-0.132735 0.45282,-0.223012 0,-0.112846 0.142476,-0.124003 1.102102,-0.0759 0.606115,0.03106 1.520848,0.12158 2.032627,0.200321 0.930542,0.144096 0.930603,0.144096 1.277378,-0.04527 0.415963,-0.225853 1.084933,-0.254104 1.260714,-0.05663 0.06434,0.07367 0.241399,0.194839 0.393374,0.268209 0.248157,0.121374 0.264555,0.121374 0.159728,0 -0.199304,-0.225872 -0.0014,-0.22021 0.767607,0.02821 2.479073,0.782688 4.50013,2.1766665 5.999706,4.1382365 0.355664,0.465058 0.377198,0.67453 0.04019,0.391363 l -0.192811,-0.160946 0.147348,0.271032 c 0.08098,0.149782 0.147145,0.317101 0.147145,0.373015 0,0.05622 0.238272,0.46788 0.529761,0.915707 0.656671,1.009675 0.840389,1.349955 0.796306,1.474471 -0.0203,0.05378 -0.309815,-0.302144 -0.646523,-0.790035 -0.336666,-0.488216 -0.834868,-1.14582 -1.107156,-1.461482 -0.406525,-0.471288 -0.513058,-0.552046 -0.596027,-0.451236 -0.05542,0.06778 -0.191187,0.135568 -0.301454,0.149782 l -0.200321,0.02821 0.198088,0.366501 c 0.108992,0.20032 0.21264,0.325545 0.230418,0.276674 0.09458,-0.26823 0.535546,0.08484 0.735988,0.587584 0.06495,0.163584 0.237989,0.499499 0.384138,0.747129 0.14613,0.248421 0.247609,0.467574 0.22502,0.488743 -0.02253,0.02821 -0.155872,-0.04525 -0.296237,-0.149783 l -0.25522,-0.188954 0.174137,0.282375 c 0.09579,0.155264 0.256052,0.344441 0.356375,0.421261 0.125025,0.096 0.184692,0.245599 0.190374,0.482268 0.01008,0.434249 0.274135,0.947307 0.417688,0.812097 0.223639,-0.211746 0.26965,-0.07916 0.213066,0.610985 -0.0416,0.508531 -0.0203,0.843717 0.07896,1.199442 0.149174,0.540172 0.116906,0.673455 -0.100873,0.421016 -0.138825,-0.160946 -0.140241,-0.160946 -0.07814,0 0.133144,0.357207 0.232894,0.891676 0.20525,1.101191 -0.05175,0.391363 -0.207504,0.228693 -0.261166,-0.273853 l -0.05236,-0.489332 -0.01212,0.520648 c -0.0082,0.286335 -0.07976,0.839761 -0.158713,1.229683 -0.07955,0.393901 -0.120148,0.871381 -0.09113,1.073811 0.05439,0.38146 0.01827,0.396175 -0.322074,0.124004 -0.137802,-0.110204 -0.161148,-0.09011 -0.255788,0.242819 -0.07955,0.279493 -0.07895,0.436806 0.0016,0.670024 0.05907,0.169268 0.09296,0.395871 0.0759,0.506259 -0.03978,0.254125 -0.256071,0.334334 -0.256071,0.09316 0,-0.302388 -0.121974,-0.19484 -0.494813,0.436542 -1.006834,1.704037 -2.599791,3.02294 -4.402769,3.645229 -1.062913,0.366522 -1.775865,0.502606 -2.974576,0.567288 l -1.079594,0.05927 0.533393,0.155263 c 0.43015,0.124003 0.682731,0.144095 1.304514,0.09599 0.814633,-0.0621 1.771154,-0.228693 2.204855,-0.3843 0.173124,-0.0621 0.290007,-0.06516 0.34982,-0.02821 0.141059,0.13294 -1.111906,0.655656 -1.855647,0.774224 -1.265484,0.20032 -2.959536,-0.02821 -4.45493,-0.57291 -1.014628,-0.377765 -2.520212,-1.361239 -2.28953,-1.495355 0.04384,-0.02821 0.330213,0.104524 0.636537,0.285462 0.391669,0.234335 0.557121,0.29504 0.557121,0.206144 0,-0.166629 0.05804,-0.158104 0.369039,0.05095 0.281197,0.189157 1.145211,0.538753 1.767662,0.716341 0.67851,0.194839 0.415415,-0.04201 -0.494811,-0.441333 -2.878109,-1.264672 -4.072943,-2.529934 -4.668361,-4.942942 -0.218444,-0.884939 0.01212,-2.825016 0.413873,-3.432368 0.100668,-0.155263 0.183271,-0.343344 0.183271,-0.420691 0,-0.336323 0.594565,-1.224325 1.204596,-1.799244 1.075008,-1.013329 2.192618,-1.434041 3.643484,-1.371651 0.701362,0.03104 1.000887,0.08767 1.584575,0.307461 0.662049,0.24846 1.495659,0.769129 1.240379,0.774244 -0.06007,0.0014 -0.323191,-0.08199 -0.584783,-0.183474 -0.397717,-0.155262 -0.652654,-0.186316 -1.555269,-0.191999 -1.267412,0 -1.886943,0.163584 -2.78901,0.763224 -1.278838,0.848203 -1.989964,1.825141 -2.241814,3.079971 -0.169064,0.841688 -0.174138,1.075191 -0.04222,1.910425 0.0759,0.481131 0.129888,0.62231 0.224716,0.588172 0.07976,-0.02821 0.125025,0.02821 0.125025,0.115884 0,0.298471 0.688394,1.508385 1.165832,2.049107 1.14915,1.301955 3.008084,2.132642 4.771871,2.132642 0.915422,0 1.655468,-0.166426 2.336635,-0.523225 0.273568,-0.144096 0.618799,-0.318767 0.767224,-0.38966 0.523732,-0.251283 0.848688,-0.536154 1.228606,-1.080833 0.21128,-0.302996 0.440804,-0.550605 0.510175,-0.550605 0.102494,0 0.09782,0.04221 -0.02253,0.234315 -0.401553,0.624583 0.540884,-0.511352 1.028978,-1.240135 l 0.546586,-0.816541 -0.05946,-0.536479 c -0.05723,-0.515311 -0.04892,-0.546931 0.212619,-0.805581 0.251851,-0.248482 0.274419,-0.323293 0.303564,-0.989665 0.02516,-0.596331 0.0082,-0.720014 -0.103706,-0.720886 -0.103706,-5.49e-4 -0.14816,-0.158105 -0.193217,-0.679037 -0.05907,-0.690362 -0.655413,-3.013623 -0.794236,-3.09438 -0.04201,-0.02821 -0.158104,-0.248462 -0.258324,-0.496395 -0.33817,-0.838888 -0.931355,-1.645869 -1.856154,-2.524556 -1.330695,-1.264673 -3.006967,-2.241064 -4.590344,-2.674197 -1.346871,-0.368186 -3.634025,-0.234336 -5.26311,0.307746 -0.795069,0.265387 -1.578445,0.614984 -1.710592,0.765213 -0.06007,0.06778 -0.146942,0.101676 -0.193012,0.0759 -0.04912,-0.02821 -0.03512,-0.104524 0.03186,-0.180633 0.300094,-0.341071 -0.69574,0.282944 -1.336884,0.837508 -0.387631,0.335429 -0.718878,0.619773 -0.73615,0.632194 -0.01827,0.02821 0.05804,5.68e-4 0.167845,-0.02821 0.182055,-0.04525 0.190173,-0.03125 0.09113,0.141059 -0.06333,0.109999 -0.393172,0.31225 -0.797443,0.48505 -0.67924,0.290555 -1.118564,0.609584 -1.467631,1.066484 -0.139642,0.183474 -0.147144,0.223071 -0.03694,0.180632 0.07733,-0.02821 0.14065,-0.02821 0.14065,0.03978 0,0.242779 -0.233483,0.512732 -0.579223,0.671121 -0.766166,0.351017 -2.112022,2.22501 -2.83299,3.945121 -0.321282,0.766613 -0.316209,0.740086 -0.141263,0.740086 0.184286,0 0.171499,0.197681 -0.08158,1.255906 -0.36841,1.542522 -0.368877,1.493122 0.03207,3.663069 0.488885,2.643996 0.774426,3.527188 1.317441,4.074424 0.127259,0.126851 0.251263,0.401492 0.306407,0.675951 0.06596,0.327534 0.176167,0.543544 0.38357,0.749383 0.188954,0.186315 0.251831,0.302712 0.179212,0.327533 -0.142271,0.0481 0.303159,0.674857 0.709541,0.997276 0.204379,0.163788 0.355989,0.217511 0.520121,0.186316 0.359663,-0.06516 0.725982,0.129888 1.288723,0.687236 0.584865,0.578532 0.643478,0.734161 0.256378,0.680458 -0.249863,-0.03389 -0.255241,-0.02821 -0.132531,0.149783 0.07084,0.101677 0.331289,0.346165 0.579222,0.543257 0.348236,0.276693 0.437882,0.39646 0.394205,0.526311 -0.06292,0.186316 0.116293,0.360861 0.52203,0.507112 0.251546,0.09052 0.332567,0.286313 0.143088,0.345576 -0.05724,0.02821 0.296968,0.361733 0.787233,0.764097 0.552351,0.452921 0.923845,0.701099 0.976798,0.652795 0.140036,-0.127259 0.319212,-0.09011 0.322398,0.06779 0.0016,0.17495 0.162163,0.35603 0.733511,0.842803 0.361002,0.307502 0.451075,0.346187 0.672359,0.288871 0.202554,-0.05378 0.330051,-0.02821 0.61539,0.163584 0.569338,0.362848 0.914489,0.50768 1.210118,0.50768 0.290799,0 0.332221,0.07916 0.181038,0.344785 -0.07976,0.141059 -0.06292,0.163584 0.120762,0.163584 0.118118,0 0.44937,0.07611 0.737001,0.169471 0.653992,0.211705 0.926808,0.22581 0.762899,0.03937 -0.241966,-0.276672 0.01212,-0.20032 0.879804,0.256924 1.208899,0.639257 1.820392,0.712099 4.227658,0.504879 0.356373,-0.03125 0.472323,-0.02821 0.472323,0.07326 0,0.07367 -0.309288,0.183474 -0.877205,0.313997 -0.74658,0.16947 -1.145049,0.203262 -2.67651,0.220189 -1.206789,0.02821 -2.031083,-0.02821 -2.503001,-0.09296 z M 23.796647,29.415116 c 0,-0.02821 -0.111226,-0.096 -0.247609,-0.174951 l -0.24763,-0.141059 0.212397,0.174951 c 0.207281,0.169266 0.282538,0.208843 0.282538,0.141059 z m 12.38696,-8.888633 c -0.02901,-0.06778 -0.04993,-0.0481 -0.05419,0.05074 -0.0016,0.09011 0.01827,0.141059 0.04709,0.109999 0.02983,-0.02821 0.03309,-0.101676 0.0082,-0.163584 z M 15.711019,11.573737 c 0.111825,-0.13294 0.108788,-0.138416 -0.03389,-0.03105 -0.08626,0.06495 -0.157698,0.129698 -0.157698,0.146739 0,0.06778 0.07408,0.02821 0.191389,-0.118527 z m 1.023194,-0.784697 c 0.08991,-0.09296 0.14268,-0.169267 0.11771,-0.169267 -0.02537,0 -0.118119,0.0759 -0.207709,0.169267 -0.08931,0.09316 -0.142679,0.169268 -0.117709,0.169268 0.02557,0 0.118118,-0.0759 0.207727,-0.169268 z m 1.132444,-0.596028 c 0.296564,-0.096 0.465079,-0.110204 0.527672,-0.05378 0.06272,0.05927 0.294512,0.02821 0.726468,-0.11 0.349068,-0.1071655 0.618636,-0.2117465 0.59901,-0.2287125 -0.0203,-0.02821 -0.307014,0.05378 -0.638627,0.155262 -0.45554,0.1440955 -0.619449,0.1635835 -0.67025,0.087669 -0.08585,-0.1296975 -0.904462,0.127259 -1.25635,0.396155 l -0.240284,0.183474 0.258367,-0.146739 c 0.141862,-0.07916 0.454463,-0.208845 0.694117,-0.285177 z m 2.593765,-0.2146475 c 0.261451,-0.07326 0.459436,-0.146739 0.440358,-0.166629 -0.04201,-0.03937 -0.972758,0.2117265 -0.972758,0.2625875 0,0.05074 0.0082,0.0479 0.5324,-0.095999 z m 1.491884,-0.462217 0.359865,-0.0621 -0.314889,0 c -0.173124,0 -0.416065,0.05095 -0.539767,0.121565 -0.145732,0.08484 -0.161555,0.109999 -0.04486,0.06778 0.09905,-0.03389 0.341904,-0.08767 0.539808,-0.121565 z m 0.714534,-0.160946 c 0.02903,-0.04221 -0.03065,-0.05663 -0.129698,-0.03389 -0.20996,0.05378 -0.236608,0.11 -0.05013,0.11 0.07123,0 0.152624,-0.03674 0.179821,-0.0759 z m 2.904778,0.02821 c -0.03004,-0.02821 -0.107371,-0.03125 -0.172515,0 -0.07205,0.02821 -0.05013,0.0479 0.05419,0.05074 0.09499,0 0.147957,-0.02821 0.118323,-0.04525 z m -0.537981,-0.09316 c -0.08626,-0.02821 -0.228085,-0.02821 -0.31485,0 -0.08626,0.02821 -0.01212,0.03978 0.157699,0.03978 0.173123,0 0.243976,-0.02821 0.157698,-0.03978 z m -0.897239,-0.08767 c -0.184489,-0.02821 -0.508145,-0.02821 -0.719749,-5.68e-4 -0.211504,0.02821 -0.0611,0.03389 0.335023,0.03389 0.395849,2.84e-4 0.568973,-0.02821 0.384726,-0.03389 z m -1.173827,-0.07326 c -0.02983,-0.02821 -0.107575,-0.03106 -0.172515,0 -0.07184,0.02821 -0.05074,0.0479 0.05419,0.05074 0.09499,0 0.147754,-0.02821 0.118323,-0.04527 z M 22.353574,29.514414 C 21.437178,28.895492 21.09763,28.575327 21.09763,28.32993 c 0,-0.129698 0.03145,-0.237157 0.06921,-0.237157 0.129698,0 1.661801,1.507512 1.628252,1.602374 -0.0203,0.05622 -0.204379,-0.02821 -0.441597,-0.180632 z m -0.471593,-1.571586 c -0.475896,-0.45343 -0.628398,-0.697406 -0.436055,-0.697406 0.115476,0 1.001252,0.956056 1.001252,1.080855 0,0.05927 -0.01008,0.107166 -0.02536,0.107166 -0.01212,0 -0.256944,-0.22019 -0.539847,-0.489901 z m 5.265931,-1.855931 c -0.251303,-0.096 -0.09417,-0.273851 0.314869,-0.355481 0.235209,-0.0479 0.60853,-0.163584 0.830018,-0.256903 0.221325,-0.09316 0.41864,-0.155264 0.438227,-0.138212 0.0203,0.02821 -0.08078,0.206146 -0.222889,0.419048 -0.256661,0.382861 -0.261166,0.385134 -0.753096,0.378619 -0.272188,0 -0.54545,-0.02821 -0.607311,-0.0479 z m 2.699018,-1.897455 c -0.242799,-0.09316 -0.252987,-0.248461 -0.04993,-0.781551 0.174138,-0.458259 0.354791,-0.548352 0.254388,-0.126851 -0.03613,0.149782 -0.08443,0.370986 -0.107167,0.487606 l -0.04181,0.211746 0.179617,-0.191998 c 0.106145,-0.113051 0.205049,-0.382576 0.241135,-0.656467 0.03389,-0.254084 0.09702,-0.44245 0.141058,-0.41706 0.111226,0.06516 0.09946,0.735562 -0.0203,1.186473 -0.105137,0.393637 -0.199913,0.439648 -0.596615,0.289134 z M 8.5568058,23.124392 c -0.03004,-0.07367 -0.0546,-0.363133 -0.0546,-0.642952 0,-0.369322 0.03086,-0.499458 0.112234,-0.474049 0.133538,0.04201 0.211949,1.251096 0.08099,1.251096 -0.04627,0 -0.108992,-0.05907 -0.138825,-0.132736 z m 21.6435752,-1.98359 c -0.140037,-0.177793 -0.183068,-0.319335 -0.143088,-0.468144 0.08138,-0.305776 0.294411,-0.262567 0.451582,0.09316 0.244219,0.551416 0.03207,0.810046 -0.308294,0.375797 z M 8.5382968,19.793947 c -0.0082,-0.480808 -1.9e-5,-0.495503 0.225872,-0.487607 0.19139,0 0.237745,0.05337 0.259746,0.268229 0.02536,0.239978 -0.252134,0.716321 -0.416592,0.716321 -0.03389,0 -0.06515,-0.222991 -0.06881,-0.496071 z M 31.858772,9.3681905 c 0.01212,-0.759286 0.147754,-1.016231 0.25384,-0.484846 0.07367,0.370175 -0.0203,1.024106 -0.162569,1.1359345 -0.07773,0.05926 -0.100873,-0.1045225 -0.09113,-0.6510885 z M 20.037336,8.9133015 c 0.03613,-0.101677 1.277194,-0.581659 1.506151,-0.581659 0.269082,0 -0.213492,0.310547 -0.769962,0.495807 -0.620504,0.206165 -0.785712,0.225872 -0.736189,0.08767 z" />
</svg>
