<?xml version="1.0" encoding="UTF-8" standalone="no"?>
<svg
   xmlns:dc="http://purl.org/dc/elements/1.1/"
   xmlns:cc="http://creativecommons.org/ns#"
   xmlns:rdf="http://www.w3.org/1999/02/22-rdf-syntax-ns#"
   xmlns:svg="http://www.w3.org/2000/svg"
   xmlns="http://www.w3.org/2000/svg"
   xmlns:sodipodi="http://sodipodi.sourceforge.net/DTD/sodipodi-0.dtd"
   xmlns:inkscape="http://www.inkscape.org/namespaces/inkscape"
   viewBox="0 0 22 22"
   id="svg2"
   version="1.1"
   inkscape:version="0.91 r13725"
   sodipodi:docname="text-html (1).svg">
  <metadata
     id="metadata10">
    <rdf:RDF>
      <cc:Work
         rdf:about="">
        <dc:format>image/svg+xml</dc:format>
        <dc:type
           rdf:resource="http://purl.org/dc/dcmitype/StillImage" />
        <dc:title />
      </cc:Work>
    </rdf:RDF>
  </metadata>
  <sodipodi:namedview
     pagecolor="#9a9a9a"
     bordercolor="#666666"
     borderopacity="1"
     objecttolerance="10"
     gridtolerance="10"
     guidetolerance="10"
     inkscape:pageopacity="0"
     inkscape:pageshadow="2"
     inkscape:window-width="1920"
     inkscape:window-height="1048"
     id="namedview8"
     showgrid="false"
     inkscape:zoom="15.736791"
     inkscape:cx="9.1813315"
     inkscape:cy="4.1275142"
     inkscape:window-x="0"
     inkscape:window-y="0"
     inkscape:window-maximized="1"
     inkscape:current-layer="g4159" />
  <defs
     id="defs3051">
    <inkscape:path-effect
       effect="spiro"
       id="path-effect4186"
       is_visible="true" />
    <style
       type="text/css"
       id="current-color-scheme">
      .ColorScheme-Text {
        color:#4d4d4d;
      }
      </style>
    <inkscape:path-effect
       is_visible="true"
       id="path-effect4144"
       effect="spiro" />
    <inkscape:path-effect
       effect="spiro"
       id="path-effect4140"
       is_visible="true" />
    <inkscape:path-effect
       is_visible="true"
       id="path-effect4144-3"
       effect="spiro" />
    <inkscape:path-effect
       effect="spiro"
       id="path-effect4140-7"
       is_visible="true" />
    <inkscape:path-effect
       is_visible="true"
       id="path-effect4186-3"
       effect="spiro" />
    <style
       id="current-color-scheme-5"
       type="text/css">
      .ColorScheme-Text {
        color:#4d4d4d;
      }
      </style>
    <inkscape:path-effect
       effect="spiro"
       id="path-effect4144-6"
       is_visible="true" />
    <inkscape:path-effect
       is_visible="true"
       id="path-effect4140-2"
       effect="spiro" />
    <inkscape:path-effect
       effect="spiro"
       id="path-effect4144-3-9"
       is_visible="true" />
    <inkscape:path-effect
       is_visible="true"
       id="path-effect4140-7-1"
       effect="spiro" />
  </defs>
  <g
     id="g4188"
     transform="translate(26.465567,0.39550039)"
     style="stroke:#ffffff;stroke-opacity:1">
    <g
       id="g4159"
       transform="matrix(0.66738602,0,0,0.66738602,21.557254,5.1770636)"
       style="stroke:#ffffff;stroke-opacity:1;opacity:1">
      <path
         style="opacity:1;fill:#0b699c;fill-opacity:1;stroke:none"
         d="M 10.927734,2.9960938 C 10.093198,3.0443518 9.2554474,3.219483 8.4472656,3.5332031 6.8581347,4.1500719 5.5504507,5.2327453 4.640625,6.5820312 L 4.34375,6.6328125 c -0.8918159,0.1541797 -1.5991646,0.4071749 -2.125,0.78125 -0.5258348,0.3740758 -0.8686632,0.905803 -0.9082031,1.4980469 -0.079079,1.1844866 0.8622683,2.3306336 2.5234375,3.4492186 3.3223377,2.237169 8.8210236,3.745152 12.9394536,3.558594 2.059215,-0.09328 3.500219,-0.558596 4.146484,-1.558594 0.323133,-0.499999 0.374312,-1.135688 0.160156,-1.730469 -0.214157,-0.594779 -0.656497,-1.169986 -1.308594,-1.751953 L 19.53125,10.664062 C 19.429243,8.9298955 18.790431,7.2302962 17.609375,5.8457031 15.921524,3.8669749 13.431344,2.8513206 10.927734,2.9960938 Z m 0.05859,0.9960937 c 2.196499,-0.1281191 4.378674,0.7637847 5.861328,2.5019531 1.976874,2.3175579 2.27065,5.6274214 0.734375,8.2578124 l -0.04687,0.08008 c -0.262748,0.03376 -0.510551,0.07421 -0.8125,0.08789 -3.827067,0.173359 -9.277451,-1.327857 -12.3378904,-3.388672 -0.053929,-0.03631 -0.085122,-0.07127 -0.1367187,-0.107422 l -0.00195,-0.03711 C 4.1415738,8.3423507 5.97083,5.5691181 8.8105469,4.4667969 9.5204759,4.1912166 10.254162,4.0348939 10.986328,3.9921875 Z M 3.9765625,7.7597656 C 3.5713289,8.6482637 3.3261685,9.6140499 3.2617188,10.617188 2.5815258,9.9515934 2.2815309,9.3624368 2.3066406,8.9863281 2.3247535,8.715077 2.4493761,8.4810193 2.7988281,8.2324219 3.0559619,8.0494984 3.4773165,7.8921558 3.9765625,7.7597656 Z M 19.494141,12 c 0.338521,0.363375 0.548491,0.694638 0.646484,0.966797 0.1308,0.363271 0.100843,0.598996 -0.05859,0.845703 -0.175633,0.271766 -0.62052,0.546687 -1.283203,0.759766 C 19.181385,13.747934 19.401387,12.87862 19.494141,12 Z m -14.837891,1.597656 -0.9121094,0.408203 0.203125,0.457032 c 1.0021022,2.248812 2.9672835,3.924556 5.3457032,4.560547 2.3784192,0.635989 4.9174342,0.165314 6.9082032,-1.283204 l 0.404297,-0.294922 -0.587891,-0.808593 -0.404297,0.294922 c -1.747336,1.271391 -3.974915,1.683221 -6.0624998,1.125 -2.0875848,-0.558221 -3.8098884,-2.026176 -4.6894531,-4 L 4.65625,13.597656 Z"
         transform="matrix(1.4983832,0,0,1.4983832,-71.956588,-8.3498363)"
         id="path4153"
         inkscape:connector-curvature="0"
         class="ColorScheme-Text" />
    </g>
  </g>
</svg>
