<?xml version="1.0" encoding="UTF-8" standalone="no"?>
<svg
   xmlns:dc="http://purl.org/dc/elements/1.1/"
   xmlns:cc="http://creativecommons.org/ns#"
   xmlns:rdf="http://www.w3.org/1999/02/22-rdf-syntax-ns#"
   xmlns:svg="http://www.w3.org/2000/svg"
   xmlns="http://www.w3.org/2000/svg"
   xmlns:sodipodi="http://sodipodi.sourceforge.net/DTD/sodipodi-0.dtd"
   xmlns:inkscape="http://www.inkscape.org/namespaces/inkscape"
   viewBox="0 0 22 22"
   id="svg2"
   version="1.1"
   inkscape:version="0.91 r13725"
   sodipodi:docname="folder-sound (1).svg">
  <metadata
     id="metadata10">
    <rdf:RDF>
      <cc:Work
         rdf:about="">
        <dc:format>image/svg+xml</dc:format>
        <dc:type
           rdf:resource="http://purl.org/dc/dcmitype/StillImage" />
        <dc:title />
      </cc:Work>
    </rdf:RDF>
  </metadata>
  <sodipodi:namedview
     pagecolor="#9a9a9a"
     bordercolor="#666666"
     borderopacity="1"
     objecttolerance="10"
     gridtolerance="10"
     guidetolerance="10"
     inkscape:pageopacity="0"
     inkscape:pageshadow="2"
     inkscape:window-width="1920"
     inkscape:window-height="1048"
     id="namedview8"
     showgrid="false"
     inkscape:zoom="22.255184"
     inkscape:cx="16.575593"
     inkscape:cy="2.7757533"
     inkscape:window-x="0"
     inkscape:window-y="0"
     inkscape:window-maximized="1"
     inkscape:current-layer="g4188" />
  <defs
     id="defs3051">
    <inkscape:path-effect
       effect="spiro"
       id="path-effect4186"
       is_visible="true" />
    <style
       type="text/css"
       id="current-color-scheme">
      .ColorScheme-Text {
        color:#4d4d4d;
      }
      </style>
    <inkscape:path-effect
       is_visible="true"
       id="path-effect4144"
       effect="spiro" />
    <inkscape:path-effect
       effect="spiro"
       id="path-effect4140"
       is_visible="true" />
    <inkscape:path-effect
       is_visible="true"
       id="path-effect4144-3"
       effect="spiro" />
    <inkscape:path-effect
       effect="spiro"
       id="path-effect4140-7"
       is_visible="true" />
  </defs>
  <g
     id="g4188"
     transform="translate(26.465567,0.39550039)"
     style="stroke:#ffffff;stroke-opacity:1">
    <path
       style="opacity:1;fill:#a664c2;fill-opacity:1;stroke:none"
       d="m -15.037109,1.765625 c -0.123996,-0.040995 -0.296487,-0.037724 -0.425782,0.017578 -0.129294,0.055302 -0.207805,0.1388226 -0.259765,0.2089844 -0.10392,0.1403236 -0.130278,0.2501688 -0.15625,0.3554687 -0.05194,0.2105999 -0.06318,0.4066974 -0.06445,0.5605469 -0.0264,3.172917 0.0047,10.831567 0.01172,13.125 5.06e-4,0.165816 -0.02166,0.283179 -0.04101,0.353516 -0.0073,0.02638 -0.01279,0.03999 -0.01758,0.05273 -0.918678,1.470446 -1.912954,2.100617 -2.748047,2.259766 -0.839126,0.159917 -1.553299,-0.135095 -1.992188,-0.632813 -0.438888,-0.497718 -0.605228,-1.174093 -0.298828,-1.90039 0.3064,-0.726298 1.13697,-1.546662 2.851563,-2.132813 l -0.333985,-0.974609 c -1.897316,0.648617 -3.011516,1.627825 -3.466797,2.707031 -0.45528,1.079206 -0.200497,2.214609 0.476563,2.982422 0.677059,0.767813 1.775179,1.190076 2.957031,0.964844 1.181852,-0.225233 2.412331,-1.083365 3.44336,-2.744141 l 0,-0.002 0.002,0 c 6e-4,-9.75e-4 0.03936,-0.07407 0.05859,-0.121094 0.01923,-0.04703 0.04137,-0.108754 0.0625,-0.185547 0.04227,-0.153586 0.07893,-0.366458 0.07813,-0.630859 -0.007,-2.2921 -0.03771,-9.9299994 -0.01172,-13.0917971 3.065548,1.1365969 4.301529,2.7480626 4.570312,4.1230469 0.283236,1.4489185 -0.488569,2.667489 -1.210937,2.9335937 l 0.355468,0.9667975 C -9.8396695,10.460829 -8.9620859,8.745775 -9.3300781,6.8632812 -9.6980703,4.9807875 -11.361968,2.980733 -15.037109,1.765625 Z"
       id="path5631"
       inkscape:connector-curvature="0"
       class="ColorScheme-Text" />
    <g
       transform="translate(-337.93149,-521.39343)"
       id="layer1"
       inkscape:label="Capa 1">
      <rect
         id="rect4035"
         style="fill:#04896a"
         height="14.668059"
         y="518.47876"
         x="273.38181"
         width="0" />
      <rect
         id="rect4035-8"
         style="fill:#16907d"
         height="14.668059"
         y="541.04938"
         x="280.34238"
         width="0" />
      <rect
         id="rect4035-0"
         style="fill:#6c7a89"
         height="14.668059"
         y="539.98865"
         x="282.15567"
         width="0" />
    </g>
  </g>
</svg>
