<?xml version="1.0" encoding="UTF-8" standalone="no"?>
<svg
   xmlns:dc="http://purl.org/dc/elements/1.1/"
   xmlns:cc="http://creativecommons.org/ns#"
   xmlns:rdf="http://www.w3.org/1999/02/22-rdf-syntax-ns#"
   xmlns:svg="http://www.w3.org/2000/svg"
   xmlns="http://www.w3.org/2000/svg"
   xmlns:sodipodi="http://sodipodi.sourceforge.net/DTD/sodipodi-0.dtd"
   xmlns:inkscape="http://www.inkscape.org/namespaces/inkscape"
   viewBox="0 0 16 16"
   version="1.1"
   id="svg5"
   sodipodi:docname="folder-music-symbolic.svg"
   width="16"
   height="16"
   inkscape:version="0.91 r13725">
  <metadata
     id="metadata9">
    <rdf:RDF>
      <cc:Work
         rdf:about="">
        <dc:format>image/svg+xml</dc:format>
        <dc:type
           rdf:resource="http://purl.org/dc/dcmitype/StillImage" />
        <dc:title />
      </cc:Work>
    </rdf:RDF>
  </metadata>
  <sodipodi:namedview
     pagecolor="#ffffff"
     bordercolor="#666666"
     borderopacity="1"
     objecttolerance="10"
     gridtolerance="10"
     guidetolerance="10"
     inkscape:pageopacity="0"
     inkscape:pageshadow="2"
     inkscape:window-width="1920"
     inkscape:window-height="1055"
     id="namedview7"
     showgrid="false"
     inkscape:zoom="21.454546"
     inkscape:cx="-1.2577113"
     inkscape:cy="7.3521556"
     inkscape:window-x="0"
     inkscape:window-y="0"
     inkscape:window-maximized="1"
     inkscape:current-layer="svg5" />
  <defs
     id="defs3051">
    <style
       type="text/css"
       id="current-color-scheme">
      .ColorScheme-Text {
        color:#d3dae3;
      }
      </style>
    <inkscape:path-effect
       is_visible="true"
       id="path-effect4167"
       effect="spiro" />
    <inkscape:path-effect
       is_visible="true"
       id="path-effect4152"
       effect="spiro" />
    <inkscape:path-effect
       is_visible="true"
       id="path-effect4186"
       effect="spiro" />
    <style
       id="current-color-scheme-6"
       type="text/css">
      .ColorScheme-Text {
        color:#d3dae3;
      }
      </style>
    <inkscape:path-effect
       effect="spiro"
       id="path-effect4144"
       is_visible="true" />
    <inkscape:path-effect
       is_visible="true"
       id="path-effect4140"
       effect="spiro" />
    <inkscape:path-effect
       effect="spiro"
       id="path-effect4144-3"
       is_visible="true" />
    <inkscape:path-effect
       is_visible="true"
       id="path-effect4140-7"
       effect="spiro" />
  </defs>
  <g
     style="stroke:#ffffff;stroke-opacity:1"
     transform="matrix(0.72661767,0,0,0.72661767,19.234221,0.27616827)"
     id="g4188">
    <path
       inkscape:connector-curvature="0"
       id="path5631"
       d="m -14.914062,1.3164062 c -0.150941,-0.049905 -0.362917,-0.046346 -0.521485,0.021484 -0.158568,0.06783 -0.254512,0.1703157 -0.316406,0.2539063 -0.123788,0.1671812 -0.153163,0.2907659 -0.181641,0.40625 -0.05696,0.2309682 -0.06696,0.4334496 -0.06836,0.5976562 l 0,0.00195 c -0.02685,3.2276296 0.0066,11.0109553 0.01367,13.3417963 4.76e-4,0.156472 -0.02218,0.264848 -0.03906,0.326172 -0.01484,0.05392 0.0026,0.01887 0.0059,0.01172 -0.922969,1.483537 -1.909036,2.093734 -2.71875,2.248047 -0.811034,0.154563 -1.489256,-0.130628 -1.90625,-0.603516 -0.416995,-0.472888 -0.574492,-1.103723 -0.28125,-1.798828 0.293241,-0.695105 1.10181,-1.509501 2.822265,-2.097656 l -0.421875,-1.228516 c -1.950854,0.66692 -3.11669,1.680221 -3.597656,2.820314 -0.480966,1.14009 -0.2134,2.352559 0.503906,3.166014 0.717307,0.813455 1.88182,1.256452 3.125,1.019531 1.243181,-0.23692 2.52272,-1.136222 3.583985,-2.845703 l 0.002,-0.0059 0.002,-0.0039 c 0.0012,-0.002 0.089,-0.169666 0.134765,-0.335938 0.04577,-0.166272 0.08484,-0.394962 0.08399,-0.675781 -0.007,-2.296649 -0.0361,-9.8230405 -0.01172,-13.115234 2.948896,1.1396741 4.138449,2.7034361 4.396484,4.0234375 0.277535,1.41975 -0.495741,2.5979654 -1.152343,2.8398438 l 0.449219,1.2187507 C -9.5502448,10.365406 -8.6448926,8.5602 -9.0292969,6.59375 -9.4137011,4.6273 -11.150693,2.5606853 -14.914062,1.3164062 Z"
       style="opacity:1;fill:currentColor;fill-opacity:1;stroke:none"
       class="ColorScheme-Text" />
  </g>
</svg>
