<?xml version="1.0" encoding="UTF-8" standalone="no"?>
<svg
   xmlns:dc="http://purl.org/dc/elements/1.1/"
   xmlns:cc="http://creativecommons.org/ns#"
   xmlns:rdf="http://www.w3.org/1999/02/22-rdf-syntax-ns#"
   xmlns:svg="http://www.w3.org/2000/svg"
   xmlns="http://www.w3.org/2000/svg"
   xmlns:sodipodi="http://sodipodi.sourceforge.net/DTD/sodipodi-0.dtd"
   xmlns:inkscape="http://www.inkscape.org/namespaces/inkscape"
   viewBox="0 0 16 16"
   version="1.1"
   id="svg6"
   sodipodi:docname="folder-saved-search-symbolic.svg"
   width="16"
   height="16"
   inkscape:version="0.91 r13725">
  <metadata
     id="metadata10">
    <rdf:RDF>
      <cc:Work
         rdf:about="">
        <dc:format>image/svg+xml</dc:format>
        <dc:type
           rdf:resource="http://purl.org/dc/dcmitype/StillImage" />
        <dc:title />
      </cc:Work>
    </rdf:RDF>
  </metadata>
  <sodipodi:namedview
     pagecolor="#ffffff"
     bordercolor="#666666"
     borderopacity="1"
     objecttolerance="10"
     gridtolerance="10"
     guidetolerance="10"
     inkscape:pageopacity="0"
     inkscape:pageshadow="2"
     inkscape:window-width="1920"
     inkscape:window-height="1055"
     id="namedview8"
     showgrid="false"
     inkscape:zoom="21.454546"
     inkscape:cx="3.6524684"
     inkscape:cy="6.8900726"
     inkscape:window-x="0"
     inkscape:window-y="0"
     inkscape:window-maximized="1"
     inkscape:current-layer="svg6" />
  <defs
     id="defs3051">
    <style
       type="text/css"
       id="current-color-scheme">
      .ColorScheme-Text {
        color:#d3dae3;
      }
      </style>
  </defs>
  <path
     style="opacity:1;fill:currentColor;fill-opacity:1;stroke:none"
     d="m 6.4835805,1.2584745 c -2.7914246,0 -5.0386653,2.2472407 -5.0386653,5.0386653 0,2.7914248 2.2472407,5.0386662 5.0386653,5.0386662 1.2438826,0 2.3770609,-0.449015 3.254138,-1.19078 l 4.5498895,4.54989 0.593749,-0.593749 -4.54989,-4.5498892 c 0.741765,-0.8770771 1.19078,-2.0102554 1.19078,-3.254138 0,-2.7914246 -2.2472417,-5.0386653 -5.0386665,-5.0386653 z m 0,0.8397776 c 2.326188,0 4.1988885,1.8726998 4.1988885,4.1988877 0,2.326188 -1.8727005,4.1988882 -4.1988885,4.1988882 -2.3261879,0 -4.1988877,-1.8727002 -4.1988877,-4.1988882 0,-2.3261879 1.8726998,-4.1988877 4.1988877,-4.1988877 z"
     id="path4"
     inkscape:connector-curvature="0"
     class="ColorScheme-Text" />
</svg>
