<?xml version="1.0" encoding="UTF-8" standalone="no"?>
<svg
   xmlns:dc="http://purl.org/dc/elements/1.1/"
   xmlns:cc="http://creativecommons.org/ns#"
   xmlns:rdf="http://www.w3.org/1999/02/22-rdf-syntax-ns#"
   xmlns:svg="http://www.w3.org/2000/svg"
   xmlns="http://www.w3.org/2000/svg"
   xmlns:sodipodi="http://sodipodi.sourceforge.net/DTD/sodipodi-0.dtd"
   xmlns:inkscape="http://www.inkscape.org/namespaces/inkscape"
   viewBox="0 0 16 16"
   version="1.1"
   id="svg6"
   sodipodi:docname="folder-documents-symbolic.svg"
   width="16"
   height="16"
   inkscape:version="0.91 r13725">
  <metadata
     id="metadata10">
    <rdf:RDF>
      <cc:Work
         rdf:about="">
        <dc:format>image/svg+xml</dc:format>
        <dc:type
           rdf:resource="http://purl.org/dc/dcmitype/StillImage" />
        <dc:title />
      </cc:Work>
    </rdf:RDF>
  </metadata>
  <sodipodi:namedview
     pagecolor="#ffffff"
     bordercolor="#666666"
     borderopacity="1"
     objecttolerance="10"
     gridtolerance="10"
     guidetolerance="10"
     inkscape:pageopacity="0"
     inkscape:pageshadow="2"
     inkscape:window-width="1920"
     inkscape:window-height="1055"
     id="namedview8"
     showgrid="false"
     inkscape:zoom="30.34131"
     inkscape:cx="-10.059011"
     inkscape:cy="3.3676797"
     inkscape:window-x="0"
     inkscape:window-y="0"
     inkscape:window-maximized="1"
     inkscape:current-layer="svg6" />
  <defs
     id="defs3051">
    <style
       type="text/css"
       id="current-color-scheme">
      .ColorScheme-Text {
        color:#d3dae3;
      }
      </style>
    <inkscape:path-effect
       is_visible="true"
       id="path-effect4167"
       effect="spiro" />
    <inkscape:path-effect
       is_visible="true"
       id="path-effect4152"
       effect="spiro" />
    <inkscape:path-effect
       is_visible="true"
       id="path-effect4186"
       effect="spiro" />
    <style
       id="current-color-scheme-5"
       type="text/css">
      .ColorScheme-Text {
        color:#d3dae3;
      }
      </style>
    <inkscape:path-effect
       effect="spiro"
       id="path-effect4144"
       is_visible="true" />
    <inkscape:path-effect
       is_visible="true"
       id="path-effect4140"
       effect="spiro" />
    <inkscape:path-effect
       effect="spiro"
       id="path-effect4144-3"
       is_visible="true" />
    <inkscape:path-effect
       is_visible="true"
       id="path-effect4140-7"
       effect="spiro" />
    <inkscape:path-effect
       is_visible="true"
       id="path-effect4740-3"
       effect="spiro" />
    <inkscape:path-effect
       is_visible="true"
       id="path-effect4744-6"
       effect="spiro" />
    <inkscape:path-effect
       is_visible="true"
       id="path-effect4748-7"
       effect="spiro" />
  </defs>
  <g
     style="stroke:#ffffff;stroke-opacity:1;stroke-width:0.99975052;stroke-miterlimit:4;stroke-dasharray:none"
     transform="matrix(0.81320288,0,0,0.81320288,20.563286,-0.64040943)"
     id="g4188">
    <g
       transform="matrix(0.69560204,0,0,0.69560204,2.625656,-6.3269708)"
       id="g4162"
       style="stroke:#ffffff;stroke-width:1.43724495;stroke-miterlimit:4;stroke-dasharray:none;stroke-opacity:1" />
  </g>
  <path
     style="opacity:1;fill:currentColor;fill-opacity:1;stroke:none"
     d="m 8.34375,1.1953125 c -5.3389759,0 -5.0213417,-0.011378 -5.3125,0.2109375 C 2.951074,1.467469 2.8411214,1.5958494 2.7871094,1.6933594 l -0.097656,0.1777344 -0.00977,0.75 -0.011719,0.75 -0.5410157,0 -0.5410156,0 0,0.4121093 0,0.4121094 0.9550781,0 0.9550782,0 0,-1.0683594 c -3e-7,-0.9431267 0.00668,-1.0702176 0.052734,-1.0878906 0.028673,-0.011005 2.1786152,-0.019531 4.7773438,-0.019531 l 4.7246088,0 0.05078,0.074219 c 0.04561,0.065148 0.05274,0.4479201 0.05274,3.4726562 l 0,3.4023438 -0.138672,0.1757812 c -0.171509,0.2173086 -0.724332,0.8454844 -1.291016,1.4707033 -0.358681,0.395733 -0.419669,0.478422 -0.380859,0.513671 0.02544,0.02311 0.162364,0.148646 0.302734,0.279297 l 0.253907,0.238282 0.193359,-0.207032 c 0.937978,-1.00666 1.638792,-1.8434702 1.763672,-2.103515 l 0.103516,-0.2128906 0,-3.578125 0,-3.5761719 -0.109376,-0.2207031 c -0.06971,-0.141608 -0.15943,-0.2617185 -0.25,-0.3359375 C 13.319828,1.1812495 13.694922,1.1953125 8.34375,1.1953125 Z m -5.8007812,4.3183594 -0.00977,0.5839843 -0.00781,0.5859376 -0.453125,0.00977 -0.4550781,0.00781 0,0.3945312 0,0.3945313 0.8574219,0 0.8574218,0 0,-0.9882813 0,-0.9882812 -0.3945312,0 -0.3945312,0 z m -0.035156,3.1972656 0,0.6914063 0,0.6914062 -0.4609375,0 -0.4609375,0 0,0.412109 0,0.41211 0.8730469,0 0.8730468,0 0,-1.1035159 0,-1.1035156 -0.4121093,0 -0.4121094,0 z m -0.066406,3.3847655 0.00195,0.177735 c 0.00185,0.576202 0.2889095,1.12702 0.8378906,1.607421 0.1939253,0.1697 0.5636458,0.381886 0.7910156,0.453125 0.1577584,0.04943 2.7292154,0.0577 6.947265,0.02344 l 2.69336,-0.02148 0,-0.41211 0,-0.412109 -4.5859375,0.01758 C 4.1517182,13.547905 4.2756246,13.551285 3.9648412,13.369149 3.6169352,13.165263 3.31516,12.707627 3.275388,12.322274 l -0.019531,-0.183594 -0.1542969,0 c -0.085364,0 -0.2695149,-0.0098 -0.4082031,-0.02148 L 2.4414038,12.09571 Z"
     id="path4183"
     inkscape:connector-curvature="0"
     class="ColorScheme-Text" />
</svg>
