<?xml version="1.0" encoding="UTF-8" standalone="no"?>
<svg
   xmlns:dc="http://purl.org/dc/elements/1.1/"
   xmlns:cc="http://creativecommons.org/ns#"
   xmlns:rdf="http://www.w3.org/1999/02/22-rdf-syntax-ns#"
   xmlns:svg="http://www.w3.org/2000/svg"
   xmlns="http://www.w3.org/2000/svg"
   xmlns:sodipodi="http://sodipodi.sourceforge.net/DTD/sodipodi-0.dtd"
   xmlns:inkscape="http://www.inkscape.org/namespaces/inkscape"
   viewBox="0 0 22 22"
   id="svg2"
   version="1.1"
   inkscape:version="0.91 r13725"
   sodipodi:docname="application-vnd.ms-access.svg">
  <metadata
     id="metadata10">
    <rdf:RDF>
      <cc:Work
         rdf:about="">
        <dc:format>image/svg+xml</dc:format>
        <dc:type
           rdf:resource="http://purl.org/dc/dcmitype/StillImage" />
      </cc:Work>
    </rdf:RDF>
  </metadata>
  <sodipodi:namedview
     pagecolor="#ffffff"
     bordercolor="#666666"
     borderopacity="1"
     objecttolerance="10"
     gridtolerance="10"
     guidetolerance="10"
     inkscape:pageopacity="0"
     inkscape:pageshadow="2"
     inkscape:window-width="1920"
     inkscape:window-height="1048"
     id="namedview8"
     showgrid="false"
     inkscape:zoom="11.666943"
     inkscape:cx="-9.2833095"
     inkscape:cy="7.5270028"
     inkscape:window-x="0"
     inkscape:window-y="0"
     inkscape:window-maximized="1"
     inkscape:current-layer="g4159" />
  <defs
     id="defs3051">
    <style
       type="text/css"
       id="current-color-scheme">
      .ColorScheme-Text {
        color:#4d4d4d
      }
      </style>
    <inkscape:path-effect
       is_visible="true"
       id="path-effect4186"
       effect="spiro" />
    <style
       id="current-color-scheme-3"
       type="text/css">
      .ColorScheme-Text {
        color:#4d4d4d;
      }
      </style>
    <inkscape:path-effect
       effect="spiro"
       id="path-effect4144"
       is_visible="true" />
    <inkscape:path-effect
       is_visible="true"
       id="path-effect4140"
       effect="spiro" />
    <inkscape:path-effect
       effect="spiro"
       id="path-effect4144-3"
       is_visible="true" />
    <inkscape:path-effect
       is_visible="true"
       id="path-effect4140-7"
       effect="spiro" />
    <inkscape:path-effect
       effect="spiro"
       id="path-effect4186-3"
       is_visible="true" />
    <style
       type="text/css"
       id="current-color-scheme-5">
      .ColorScheme-Text {
        color:#4d4d4d;
      }
      </style>
    <inkscape:path-effect
       is_visible="true"
       id="path-effect4144-6"
       effect="spiro" />
    <inkscape:path-effect
       effect="spiro"
       id="path-effect4140-2"
       is_visible="true" />
    <inkscape:path-effect
       is_visible="true"
       id="path-effect4144-3-9"
       effect="spiro" />
    <inkscape:path-effect
       effect="spiro"
       id="path-effect4140-7-1"
       is_visible="true" />
  </defs>
  <g
     style="stroke:#ffffff;stroke-opacity:1"
     transform="translate(-56.404213,-10.550817)"
     id="g4188">
    <g
       style="opacity:1;stroke:#ffffff;stroke-opacity:1"
       transform="matrix(0.66738602,0,0,0.66738602,23.962554,8.33402)"
       id="g4159">
      <g
         id="g4178"
         transform="translate(42.464699,16.133932)"
         style="stroke:none;stroke-opacity:1">
        <path
           style="opacity:1;fill:#e44476;fill-opacity:1;stroke:none"
           d="m 40.544922,2.703125 c -2.084809,10e-8 -3.972034,0.3057271 -5.396484,0.8300781 -0.712226,0.2621755 -1.312836,0.5754453 -1.771485,0.9746094 -0.458649,0.3991642 -0.796875,0.9286699 -0.796875,1.5390625 0,0.6103926 0.338226,1.1379452 0.796875,1.5371094 0.458649,0.3991641 1.059259,0.714387 1.771485,0.9765625 1.42445,0.5243509 3.311675,0.828125 5.396484,0.828125 2.084809,0 3.973987,-0.3037741 5.398437,-0.828125 0.712225,-0.2621755 1.310883,-0.5773984 1.769532,-0.9765625 0.458649,-0.3991642 0.798828,-0.9267168 0.798828,-1.5371094 0,-0.6103926 -0.340179,-1.1398983 -0.798828,-1.5390625 C 47.254242,4.1086484 46.655584,3.7953786 45.943359,3.5332031 44.518909,3.0088521 42.629731,2.703125 40.544922,2.703125 Z m 0,1.2988281 c 1.955498,0 3.725934,0.2996997 4.949219,0.75 0.611642,0.2251501 1.083502,0.4911354 1.365234,0.7363281 0.281732,0.2451927 0.351563,0.4253526 0.351563,0.5585938 0,0.1332412 -0.06983,0.313401 -0.351563,0.5585938 -0.281732,0.2451926 -0.753592,0.5092248 -1.365234,0.734375 -1.223285,0.4503002 -2.993721,0.75 -4.949219,0.75 -1.955499,0 -3.723981,-0.2996998 -4.947266,-0.75 C 34.986014,7.1146936 34.512201,6.8506614 34.230469,6.6054688 33.948736,6.360276 33.878906,6.1801162 33.878906,6.046875 c 0,-0.1332412 0.06983,-0.3134011 0.351563,-0.5585938 0.281732,-0.2451927 0.755545,-0.511178 1.367187,-0.7363281 1.223285,-0.4503003 2.991767,-0.75 4.947266,-0.75 z m 7.871094,6.1816409 -1.246094,0.367187 c 0.08143,0.274761 0.01132,0.517155 -0.453125,0.904297 -0.464445,0.387142 -1.305533,0.789832 -2.429688,1.072266 -2.248308,0.564867 -5.211461,0.566097 -7.464843,0.0039 -1.126691,-0.281096 -1.97078,-0.682801 -2.439454,-1.070312 -0.468673,-0.387512 -0.541703,-0.630952 -0.46289,-0.904297 l -1.248047,-0.361329 c -0.241002,0.835863 0.179343,1.687546 0.880859,2.267579 0.701517,0.580032 1.702506,1.017576 2.955078,1.330078 2.505146,0.625003 5.594941,0.624385 8.095704,-0.0039 1.250381,-0.314146 2.245308,-0.754071 2.943359,-1.335937 0.698051,-0.581866 1.116334,-1.435492 0.869141,-2.269531 z m 0,4.734375 -1.246094,0.36914 c 0.08143,0.274761 0.01132,0.517155 -0.453125,0.904297 -0.464445,0.387142 -1.305533,0.789832 -2.429688,1.072266 -2.248308,0.564867 -5.211461,0.56607 -7.464843,0.0039 -1.126691,-0.281096 -1.97078,-0.682801 -2.439454,-1.070312 -0.468673,-0.387511 -0.541703,-0.630951 -0.46289,-0.904297 l -1.248047,-0.361328 c -0.241002,0.835862 0.179343,1.687545 0.880859,2.267578 0.701517,0.580032 1.702506,1.017576 2.955078,1.330078 2.505146,0.625003 5.594941,0.622426 8.095704,-0.0059 1.250381,-0.314147 2.245308,-0.752119 2.943359,-1.333985 0.698051,-0.581865 1.116334,-1.437444 0.869141,-2.271484 z"
           transform="matrix(1.4983832,0,0,1.4983832,-38.227158,-12.812321)"
           id="ellipse4194"
           inkscape:connector-curvature="0"
           class="ColorScheme-Text" />
      </g>
    </g>
  </g>
</svg>
